<?xml version="1.0" standalone="no"?>
<!DOCTYPE svg PUBLIC "-//W3C//DTD SVG 20010904//EN"
 "http://www.w3.org/TR/2001/REC-SVG-20010904/DTD/svg10.dtd">
<svg version="1.0" xmlns="http://www.w3.org/2000/svg"
 width="1280.000000pt" height="828.000000pt" viewBox="0 0 1280.000000 828.000000"
 preserveAspectRatio="xMidYMid meet">
<metadata>
Created by potrace 1.15, written by Peter Selinger 2001-2017
</metadata>
<g transform="translate(0.000000,828.000000) scale(0.100000,-0.100000)"
fill="#8b5cf6" stroke="none">
<path d="M3277 8258 c-27 -44 -72 -124 -127 -228 -79 -150 -364 -526 -501
-662 -101 -101 -139 -127 -139 -94 0 14 18 75 71 246 l30 95 -3 265 c-3 227
-5 265 -18 265 -8 0 -16 -9 -18 -20 -14 -97 -50 -248 -83 -349 -55 -173 -160
-405 -193 -428 -25 -17 -36 16 -36 101 0 150 -26 303 -85 505 -23 80 -33 60
-45 -101 -21 -262 -66 -506 -117 -628 -38 -93 -53 -95 -53 -8 0 172 -40 462
-66 484 -18 14 -19 10 -34 -111 -32 -264 -67 -404 -154 -615 -45 -108 -62
-128 -143 -167 -68 -33 -103 -69 -164 -165 -22 -36 -56 -75 -79 -90 -91 -62
-165 -119 -183 -144 -14 -20 -19 -42 -18 -87 l1 -60 -38 -15 c-20 -8 -91 -28
-157 -43 -150 -35 -254 -37 -339 -6 -32 12 -60 23 -62 25 -2 2 -7 33 -10 68
-4 35 -11 70 -16 76 -21 26 -72 25 -132 -1 -70 -31 -74 -31 -154 -6 -74 23
-170 26 -197 6 -16 -11 -17 -22 -12 -90 4 -46 17 -103 33 -141 30 -76 28 -62
19 -240 -7 -134 0 -195 22 -195 5 0 14 28 20 62 14 71 67 183 97 204 53 37
130 3 128 -57 -6 -188 -5 -215 18 -273 25 -66 35 -62 46 18 6 48 39 154 65
209 15 33 49 44 89 27 35 -15 94 -17 165 -6 36 6 62 4 95 -8 56 -20 99 -20
159 -1 71 22 346 40 399 26 24 -7 45 -18 48 -26 9 -22 -46 -114 -93 -155 -53
-46 -190 -94 -315 -110 -90 -11 -240 -50 -286 -74 -15 -8 -83 -60 -152 -115
-110 -90 -139 -107 -260 -159 -74 -33 -156 -67 -183 -76 -52 -20 -62 -36 -19
-36 46 0 212 30 246 44 18 7 106 60 197 116 90 57 184 109 209 117 25 8 88 18
140 23 125 12 282 50 350 84 108 54 208 146 283 262 30 45 36 49 72 49 36 0
39 -2 48 -35 11 -44 4 -113 -15 -143 -9 -12 -54 -46 -101 -75 -47 -28 -124
-88 -172 -132 -47 -44 -106 -91 -130 -106 -57 -33 -219 -89 -315 -109 -41 -8
-85 -17 -96 -20 -12 -3 -40 -20 -62 -38 -43 -36 -65 -46 -157 -69 -88 -22
-190 -63 -252 -100 -59 -36 -147 -108 -139 -115 2 -2 26 -8 53 -11 57 -9 57
-12 20 -117 -25 -70 -41 -175 -26 -175 4 0 21 24 38 54 26 47 84 106 104 106
13 0 27 -41 38 -111 21 -143 60 -272 127 -420 46 -101 69 -104 36 -5 -24 69
-15 440 11 504 10 26 23 42 31 40 8 -2 38 -34 67 -73 47 -63 126 -135 147
-135 5 0 -11 42 -36 93 -30 64 -45 110 -46 143 -3 57 -15 54 142 33 162 -21
362 5 310 41 -8 5 -33 15 -55 21 -92 25 -200 61 -212 71 -19 15 -16 46 5 56 9
5 62 12 117 16 76 5 126 15 213 43 105 35 137 53 93 53 -28 0 -69 36 -56 49
17 17 204 90 285 111 41 11 100 29 130 40 30 11 56 20 57 20 2 0 3 8 3 18 0
11 -14 27 -35 38 -19 10 -35 25 -35 34 0 9 35 34 83 59 45 25 106 65 136 89
30 24 73 52 97 62 54 24 63 38 35 59 -14 11 -20 23 -16 33 4 9 86 50 188 94
156 66 205 93 345 188 89 60 162 114 162 119 0 5 -8 6 -17 2 -38 -15 -201 -53
-255 -60 -53 -7 -58 -6 -58 12 0 13 30 42 89 86 94 70 137 115 124 128 -5 5
-40 -3 -78 -17 -58 -21 -97 -27 -230 -34 -236 -12 -249 5 -86 109 58 37 106
71 108 77 2 6 -15 18 -37 27 -22 8 -40 22 -40 30 0 27 129 126 227 176 32 16
92 39 133 51 135 38 150 48 110 72 -22 14 -27 50 -7 66 22 18 160 42 304 52
165 12 255 29 373 71 315 113 376 124 670 122 259 -1 325 -10 458 -64 282
-113 566 -458 634 -771 18 -85 22 -136 22 -288 1 -175 -1 -189 -26 -265 -74
-217 -435 -702 -778 -1045 -181 -181 -483 -505 -547 -586 -26 -33 -81 -108
-122 -167 -46 -68 -80 -107 -91 -107 -10 0 -40 15 -68 34 -27 19 -76 42 -108
52 -74 21 -90 31 -116 72 -26 42 -27 121 -3 159 10 14 50 61 90 104 71 76 115
156 115 210 0 45 51 107 133 160 44 28 77 90 77 143 0 67 10 74 89 68 l69 -5
46 59 c25 33 96 127 156 210 75 104 127 164 164 192 55 42 89 97 89 142 0 14
-4 57 -8 97 -7 63 -5 77 13 112 18 33 20 46 11 68 -17 44 -38 62 -131 109 -80
40 -94 44 -162 44 -41 0 -98 -5 -125 -11 -53 -11 -105 -44 -96 -60 4 -5 42 -9
86 -9 80 0 121 -12 162 -48 23 -20 22 -35 -8 -70 -35 -42 -32 -82 10 -145 19
-28 35 -56 35 -60 0 -5 -28 -36 -62 -70 -35 -34 -105 -122 -156 -194 -52 -73
-98 -135 -103 -138 -16 -11 -66 24 -79 55 -10 24 -11 55 -4 128 12 133 10 303
-5 330 -7 12 -30 34 -52 48 -22 14 -48 39 -57 56 -50 91 -118 131 -188 108
-19 -7 -45 -25 -57 -42 -12 -17 -49 -43 -82 -59 -100 -47 -170 -131 -196 -232
-6 -26 -20 -64 -30 -85 -21 -39 -25 -72 -9 -72 5 0 33 33 63 73 56 76 138 157
158 157 7 0 29 -18 49 -40 30 -32 44 -40 72 -40 21 0 46 -9 62 -21 25 -19 26
-25 26 -107 0 -77 4 -95 30 -149 35 -72 52 -147 40 -179 -14 -36 -38 -43 -105
-28 -121 28 -122 28 -158 5 -50 -31 -111 -28 -178 8 -61 33 -169 58 -192 45
-9 -5 -26 -24 -39 -43 -15 -23 -37 -39 -64 -48 -53 -18 -104 -67 -134 -129
-18 -38 -24 -71 -27 -149 -7 -156 33 -256 56 -143 23 108 102 238 144 238 15
0 31 -14 50 -45 16 -25 39 -48 52 -51 31 -8 79 9 135 46 38 26 54 30 110 30
39 0 88 8 120 19 83 29 146 36 153 18 12 -32 -76 -122 -159 -165 -47 -24 -119
-99 -138 -144 -8 -18 -21 -73 -30 -122 -8 -49 -22 -96 -30 -105 -9 -9 -37 -25
-63 -34 -27 -10 -63 -26 -81 -37 l-32 -20 0 -119 c0 -135 -1 -134 87 -163 91
-31 211 -116 237 -166 7 -15 23 -80 36 -145 27 -132 23 -177 -25 -295 -14 -34
-25 -77 -25 -96 0 -29 5 -35 33 -47 57 -22 88 -49 85 -73 -3 -19 -9 -21 -78
-21 l-75 0 -17 -35 c-10 -20 -18 -58 -18 -87 0 -61 0 -61 -86 -34 -37 12 -119
24 -207 30 -137 9 -207 26 -207 49 0 5 -31 39 -70 78 -77 76 -149 121 -315
196 -60 27 -123 62 -138 76 -62 58 -80 129 -60 233 17 88 12 133 -29 247 -32
93 -32 110 4 217 20 59 20 63 3 210 -9 83 -21 162 -27 177 -14 36 -86 72 -127
63 -17 -3 -41 -15 -55 -26 -61 -48 -83 -51 -264 -33 -153 15 -171 15 -205 0
-46 -19 -69 -66 -69 -139 1 -27 -8 -72 -20 -101 -36 -90 -48 -149 -48 -243 0
-92 5 -123 20 -123 5 0 14 17 21 38 6 20 22 58 35 84 13 26 24 56 24 66 0 29
60 142 75 142 7 0 22 -11 33 -25 24 -30 43 -32 66 -6 12 13 37 21 84 25 37 4
107 16 156 28 87 22 88 22 103 3 16 -23 12 -59 -19 -150 -26 -76 -25 -106 7
-190 14 -37 25 -74 25 -81 0 -23 -37 -16 -110 21 -100 50 -116 48 -198 -29
l-68 -65 -118 -17 c-65 -10 -125 -23 -134 -30 -13 -10 -17 -29 -17 -91 -1 -45
-8 -104 -19 -138 -22 -77 -24 -237 -2 -290 21 -48 36 -36 36 29 0 61 30 185
54 221 19 29 35 31 78 9 29 -15 31 -14 55 8 14 13 31 35 39 51 13 23 20 27 60
27 40 0 52 6 95 44 90 81 190 83 204 4 3 -18 9 -53 14 -78 11 -62 -2 -90 -54
-123 -24 -16 -66 -48 -93 -72 -43 -39 -56 -44 -121 -54 -86 -11 -140 -43 -165
-94 -32 -68 -31 -89 7 -138 28 -38 36 -57 41 -115 10 -92 29 -157 70 -229 22
-40 40 -61 54 -63 26 -4 26 -5 5 72 -9 34 -16 101 -17 150 0 81 2 90 23 107
16 13 39 19 75 19 62 0 74 11 129 110 39 71 74 109 127 135 28 15 49 16 119
11 111 -8 143 -29 203 -134 39 -68 130 -167 187 -204 34 -21 57 -28 94 -28 65
0 82 -11 113 -73 105 -209 250 -348 442 -427 42 -18 84 -38 92 -46 11 -11 15
-40 15 -122 0 -100 2 -111 30 -162 39 -72 66 -78 95 -20 26 51 97 130 117 130
11 0 13 -5 8 -17 -47 -112 -58 -162 -59 -268 -1 -98 2 -115 23 -155 78 -148
208 -281 245 -251 7 6 18 60 25 120 14 118 38 175 69 169 26 -5 26 -43 2 -119
-69 -214 52 -424 303 -525 45 -18 84 -31 89 -28 4 3 8 22 8 42 1 42 26 191 34
199 3 3 12 1 19 -6 9 -7 17 -45 21 -109 9 -125 28 -168 97 -220 93 -69 172
-100 312 -123 84 -13 150 -3 160 25 3 8 -7 40 -23 73 -40 80 -40 183 0 183 14
0 23 -15 35 -57 34 -117 106 -202 187 -222 58 -14 222 -14 306 -1 78 13 167
51 182 79 10 19 5 28 -40 79 -65 71 -77 96 -60 117 7 8 16 15 20 15 4 0 27
-27 53 -59 54 -71 114 -108 194 -122 l58 -11 170 89 c127 66 171 94 173 110 2
12 -12 38 -33 63 -58 70 -31 114 46 74 50 -25 118 -23 160 7 91 63 219 172
252 215 49 63 54 87 30 138 -24 49 -20 66 14 66 61 0 138 65 246 209 71 95
115 180 169 325 72 193 163 469 188 566 23 94 85 287 99 309 13 20 26 11 63
-44 18 -27 45 -56 60 -64 24 -14 32 -13 90 7 35 12 88 24 118 27 90 10 98 13
129 58 42 61 88 104 116 109 50 10 105 -38 105 -91 0 -37 -33 -112 -61 -139
-16 -15 -71 -53 -122 -85 -110 -69 -159 -114 -187 -172 -23 -48 -29 -84 -60
-341 -11 -94 -31 -215 -45 -270 -37 -155 -229 -634 -267 -667 -37 -32 -138
-14 -146 25 -2 10 13 53 32 96 20 44 36 89 36 100 0 23 -35 52 -61 52 -9 0
-33 14 -54 30 -21 17 -47 30 -57 30 -11 0 -43 -20 -71 -44 -29 -23 -77 -59
-108 -79 -72 -45 -142 -148 -197 -289 -49 -128 -83 -278 -62 -278 5 0 34 49
65 109 60 115 182 275 217 287 37 11 51 -20 44 -103 -5 -66 -4 -74 19 -102 27
-31 99 -61 150 -61 66 0 98 -57 55 -100 -11 -11 -33 -20 -48 -20 -90 0 -202
-79 -202 -141 0 -48 11 -60 65 -70 67 -12 74 -21 73 -87 0 -31 5 -77 11 -102
30 -128 10 -193 -132 -424 -62 -100 -48 -101 78 -6 52 39 110 89 129 112 41
48 72 123 82 200 8 61 16 74 59 92 17 7 43 28 59 46 27 32 27 36 21 115 -8 90
1 119 49 164 31 29 36 25 62 -43 19 -53 68 -107 114 -126 27 -11 34 -9 77 18
70 45 114 61 139 52 35 -13 52 -47 47 -88 -2 -20 3 -64 11 -97 22 -81 20 -179
-4 -256 -17 -56 -40 -101 -136 -266 -28 -48 -10 -51 43 -7 156 127 243 265
280 439 13 62 20 76 67 125 66 69 86 107 86 162 0 65 -27 109 -77 125 -33 12
-45 22 -62 57 -11 24 -34 55 -52 70 l-32 27 -177 -2 c-160 -2 -181 -1 -211 17
-48 28 -73 84 -73 164 0 57 5 75 36 130 19 36 46 97 58 135 13 39 51 129 85
200 66 137 124 273 145 340 7 22 29 67 50 100 59 94 94 172 130 280 37 114 86
213 132 269 44 54 135 110 201 125 92 20 98 49 17 86 -22 10 -40 23 -40 30 0
56 275 175 407 175 31 0 43 4 41 12 -3 8 -66 24 -153 40 -81 14 -152 31 -158
37 -20 20 5 42 115 95 112 54 250 96 317 96 45 0 70 13 50 26 -51 32 -121 46
-265 51 -125 5 -160 3 -199 -11 -61 -20 -71 -20 -79 1 -4 10 6 35 28 67 18 28
49 78 67 111 18 33 51 80 74 106 50 54 100 127 92 135 -14 15 -83 -42 -246
-202 -98 -95 -183 -174 -189 -174 -18 0 -25 20 -41 124 -9 54 -21 101 -28 103
-7 3 -15 -22 -23 -67 -17 -102 -63 -187 -123 -227 -61 -41 -104 -53 -187 -53
-69 0 -132 22 -162 56 -10 11 -27 42 -39 69 -59 134 30 309 224 443 89 61 126
80 249 126 237 88 454 122 616 96 295 -48 525 -210 647 -455 53 -105 69 -179
63 -290 -4 -70 -10 -91 -48 -165 -93 -182 -239 -371 -441 -568 -77 -75 -164
-168 -193 -207 -109 -144 -175 -314 -202 -518 -42 -319 52 -555 292 -732 233
-172 446 -218 752 -160 151 29 357 113 482 198 61 41 193 170 238 232 20 28
67 85 103 127 134 156 179 235 252 443 90 253 137 467 171 780 15 127 61 366
92 474 40 139 145 299 256 390 89 73 89 89 1 93 -62 3 -68 5 -71 26 -7 47 199
292 341 405 51 41 130 109 177 153 60 55 128 103 223 159 79 46 133 83 127 89
-4 4 -49 11 -98 14 -111 6 -210 -14 -307 -63 -81 -41 -85 -42 -85 -15 0 40 29
77 156 200 191 184 293 255 530 371 190 92 242 114 339 139 109 28 82 50 -61
51 -71 0 -128 -5 -164 -15 -30 -9 -84 -21 -120 -26 -70 -11 -177 -43 -222 -66
-38 -20 -48 -18 -48 12 0 36 203 236 350 346 202 150 330 221 550 308 47 18
92 39 100 47 13 13 8 14 -40 8 -251 -29 -472 -108 -675 -239 -158 -103 -439
-344 -507 -435 -38 -51 -52 -34 -45 53 8 92 17 115 123 328 48 98 84 181 80
185 -11 11 -136 -126 -177 -194 -19 -31 -59 -94 -90 -142 -101 -155 -165 -306
-217 -512 -20 -78 -33 -114 -43 -114 -22 0 -23 81 -4 250 25 224 21 234 -44
100 -103 -212 -186 -430 -247 -645 -20 -69 -39 -129 -44 -134 -19 -19 -32 80
-27 192 3 61 3 112 1 112 -7 0 -73 -144 -96 -210 -31 -90 -66 -219 -83 -314
-9 -49 -21 -101 -27 -115 -14 -36 -37 -312 -38 -451 -1 -344 -79 -1075 -135
-1272 -65 -229 -245 -530 -432 -724 -75 -79 -245 -191 -398 -264 -174 -83
-264 -112 -365 -118 -164 -8 -259 36 -417 197 -114 115 -173 211 -173 283 0
64 21 59 113 -28 82 -79 131 -113 144 -101 7 8 -33 115 -90 237 -35 75 -40 96
-44 180 -6 113 7 187 49 270 38 76 121 170 138 154 6 -6 22 -80 36 -164 13
-84 27 -156 30 -161 10 -17 34 -9 43 14 5 12 24 69 41 126 20 64 64 167 115
265 45 89 93 192 105 229 23 72 44 92 66 63 12 -17 88 -245 99 -298 3 -16 9
-28 13 -28 11 0 89 185 124 295 27 84 29 102 30 260 1 94 -2 189 -6 212 -7 36
-5 44 10 50 23 8 120 -93 188 -197 46 -69 50 -73 59 -52 13 29 -6 252 -28 337
-40 152 -194 413 -318 539 -80 82 -80 96 4 110 70 12 188 -5 269 -39 34 -14
65 -23 69 -20 15 16 -175 143 -345 232 -203 106 -317 136 -494 132 -53 -2
-101 1 -108 5 -27 17 -11 43 40 67 29 13 78 43 110 67 63 45 88 50 168 31 25
-6 117 -12 205 -13 145 -2 165 -4 214 -26 61 -27 163 -115 255 -218 79 -89 91
-91 81 -16 -10 81 -40 157 -93 238 -52 79 -50 102 10 99 35 -2 182 -47 249
-76 22 -10 40 -12 49 -7 12 7 7 17 -25 51 -86 89 -226 177 -377 238 -18 7 -28
18 -28 31 0 25 72 61 240 118 61 20 110 40 110 44 0 4 -15 9 -32 12 -18 3 -76
12 -128 21 -77 13 -110 13 -175 5 -228 -32 -291 -33 -302 -4 -3 8 23 45 57 84
35 39 60 73 57 77 -3 3 -66 -1 -139 -8 -245 -26 -294 -19 -603 81 -105 33
-174 50 -230 54 -44 3 -141 10 -215 16 -74 6 -175 17 -224 26 -74 14 -95 22
-124 49 -32 28 -36 39 -40 92 -4 59 -4 60 42 112 45 50 46 54 46 116 0 102 9
114 122 155 66 24 88 52 88 113 0 35 -6 50 -27 72 -45 46 -129 79 -193 77 -30
-1 -122 -2 -205 -2 -168 0 -227 -12 -310 -62 -60 -36 -115 -87 -115 -105 0
-11 9 -12 38 -6 20 4 87 8 147 8 98 -1 115 -4 154 -25 64 -36 70 -51 39 -92
-33 -44 -45 -86 -52 -183 -11 -170 -28 -186 -110 -107 -101 98 -136 106 -176
41 -27 -45 -53 -59 -106 -59 -41 0 -113 -32 -142 -63 -43 -47 -102 -224 -102
-307 l1 -45 39 74 c47 88 75 120 141 156 62 34 90 28 125 -24 24 -38 29 -40
92 -47 42 -4 96 -2 142 5 133 22 134 22 138 -24 3 -35 -1 -44 -29 -67 -27 -23
-31 -31 -26 -58 4 -17 23 -58 42 -91 39 -66 43 -90 19 -110 -9 -7 -29 -39 -45
-71 -40 -78 -85 -105 -308 -184 -29 -10 -54 -23 -55 -29 -3 -25 79 -37 219
-32 184 7 235 22 294 86 34 36 60 53 101 66 81 26 108 42 125 75 25 48 19 79
-25 126 -36 40 -40 48 -40 98 0 123 13 135 100 91 27 -14 83 -36 125 -50 72
-24 84 -25 268 -23 219 3 247 -2 379 -75 119 -64 258 -166 258 -188 0 -20 -9
-24 -115 -39 -38 -6 -160 -28 -270 -50 -169 -34 -213 -47 -284 -82 -116 -58
-174 -115 -210 -203 l-28 -70 -139 -6 c-172 -8 -275 -32 -443 -105 -264 -114
-381 -214 -514 -439 -36 -61 -81 -135 -101 -165 -20 -31 -44 -80 -55 -110 -10
-30 -64 -163 -119 -295 -280 -676 -318 -755 -464 -974 -129 -193 -317 -431
-386 -487 -138 -114 -370 -239 -532 -288 -238 -71 -448 -75 -640 -14 -187 59
-444 232 -672 450 -92 88 -86 78 -300 475 -45 84 -73 160 -94 258 -16 75 -24
219 -12 230 4 4 78 -61 165 -145 163 -157 199 -187 210 -176 4 3 -14 48 -40
99 -26 51 -47 103 -47 115 0 13 -23 90 -50 171 -29 87 -57 192 -66 252 -22
143 -14 318 22 459 25 104 48 150 58 119 2 -8 25 -88 50 -179 39 -139 213
-620 231 -638 12 -12 22 15 34 88 7 41 25 152 41 245 16 94 39 232 50 308 22
139 48 247 133 542 26 88 51 179 57 203 6 23 17 42 24 42 17 0 53 -82 71 -163
8 -34 24 -179 36 -322 11 -143 23 -262 25 -264 17 -18 66 85 199 417 114 283
159 505 176 857 5 121 9 252 7 291 -2 72 9 104 37 104 21 0 138 -95 209 -170
97 -103 184 -243 201 -322 7 -38 21 -35 29 5 27 148 34 399 16 578 -13 130
-61 371 -101 509 -27 92 -89 231 -165 370 -30 55 -32 90 -4 90 30 0 125 -45
203 -97 39 -26 133 -107 208 -180 75 -73 139 -130 142 -127 3 4 0 23 -7 43 -8
20 -30 88 -51 151 -50 157 -116 289 -225 455 -146 221 -268 331 -446 405 -43
18 -97 42 -119 53 -64 32 -227 85 -317 102 -159 31 -164 45 -53 152 86 84 177
140 328 203 59 24 107 48 107 52 0 4 -28 16 -62 26 -54 17 -102 20 -343 23
-287 3 -331 0 -552 -42 -57 -10 -113 -19 -126 -19 -28 0 -190 -42 -271 -70
-33 -11 -62 -20 -66 -20 -32 0 -6 94 42 154 l31 39 -48 -8 c-92 -13 -196 -45
-298 -89 -88 -38 -104 -43 -116 -31 -12 12 -12 19 -2 42 28 62 110 193 178
285 43 58 68 100 62 104 -13 8 -83 -29 -214 -114 -126 -81 -223 -160 -356
-289 -58 -57 -111 -103 -117 -103 -21 0 -13 38 29 131 22 50 54 128 69 172 16
45 58 154 94 242 62 150 79 215 56 215 -5 0 -16 -10 -23 -22z m1452 -737 c19
-12 16 -17 -71 -100 -87 -83 -84 -83 -183 -20 -68 43 -68 43 75 86 151 45 159
47 179 34z m613 -685 c29 -13 90 -51 136 -85 77 -57 102 -84 89 -97 -2 -3 -51
-5 -107 -5 -81 0 -106 4 -121 17 -23 21 -82 162 -75 180 7 19 17 18 78 -10z
m-3565 -331 c31 -149 -64 -296 -182 -283 -46 6 -116 37 -122 55 -2 5 16 30 39
54 24 25 83 89 132 142 55 61 95 97 105 95 11 -2 20 -22 28 -63z m3760 -668
c49 -156 83 -286 83 -314 0 -28 -3 -33 -24 -33 -27 0 -134 60 -161 90 -17 19
-16 24 13 127 17 60 36 128 42 152 13 51 27 45 47 -22z m-377 -1059 c0 -70
-22 -173 -46 -220 -13 -26 -18 -28 -29 -17 -21 22 -95 162 -95 181 0 9 15 25
33 37 17 11 50 34 71 51 58 45 66 41 66 -32z m-680 -698 c0 -33 -41 -188 -55
-207 -11 -15 -15 -13 -34 25 -11 23 -21 51 -21 63 0 22 27 66 68 112 31 32 42
34 42 7z m-546 -702 c9 -35 7 -96 -4 -103 -12 -7 -50 30 -50 50 0 21 28 75 39
75 5 0 11 -10 15 -22z"/>
</g>
</svg>
