<?xml version="1.0" standalone="no"?>
<!DOCTYPE svg PUBLIC "-//W3C//DTD SVG 20010904//EN"
 "http://www.w3.org/TR/2001/REC-SVG-20010904/DTD/svg10.dtd">
<svg version="1.0" xmlns="http://www.w3.org/2000/svg"
 width="1280.000000pt" height="1280.000000pt" viewBox="0 0 1280.000000 1280.000000"
 preserveAspectRatio="xMidYMid meet">
<metadata>
Created by potrace 1.15, written by Peter Selinger 2001-2017
</metadata>
<g transform="translate(0.000000,1280.000000) scale(0.100000,-0.100000)"
fill="#000000" stroke="none">
<path d="M6983 12763 c-28 -10 -2 -125 53 -233 30 -61 214 -656 214 -693 0
-16 22 -160 49 -321 28 -160 55 -336 62 -391 19 -157 5 -595 -32 -969 -27
-276 -35 -330 -75 -491 -104 -417 -196 -648 -336 -837 -85 -116 -229 -231
-344 -276 -34 -14 -50 -26 -52 -40 -4 -25 15 -36 93 -52 84 -17 129 -43 149
-84 49 -104 -18 -271 -203 -505 -103 -131 -302 -310 -456 -412 -217 -144 -518
-258 -727 -275 -125 -11 -130 -50 -11 -74 138 -29 439 36 687 149 222 101 493
301 663 490 270 299 429 572 728 1246 76 171 211 469 302 664 90 194 162 360
159 367 -19 50 -91 -34 -171 -198 -35 -71 -66 -132 -69 -135 -3 -4 5 27 19 68
56 163 100 374 131 629 21 176 30 667 15 815 -16 156 -78 549 -100 637 -32
123 -136 403 -210 563 -60 132 -72 150 -92 150 -16 0 -23 -5 -22 -15 1 -8 36
-172 77 -365 74 -349 74 -351 102 -690 26 -328 27 -350 15 -600 -9 -216 -25
-365 -45 -420 -2 -5 -3 107 -2 250 1 270 -15 498 -55 775 -23 164 -36 211
-128 460 -40 107 -89 238 -108 290 -136 367 -230 541 -280 523z"/>
<path d="M7745 12411 c-3 -5 21 -81 53 -168 52 -138 64 -186 96 -373 81 -467
78 -425 67 -794 -6 -214 -15 -352 -24 -391 -61 -265 -119 -546 -114 -552 15
-14 76 28 128 87 51 58 115 108 125 98 2 -3 -6 -31 -18 -64 -30 -83 -31 -230
-2 -294 41 -89 108 -141 202 -158 l41 -7 -100 -115 c-335 -383 -385 -454 -619
-881 -134 -244 -203 -360 -324 -539 -154 -228 -361 -484 -513 -631 -230 -224
-570 -449 -725 -481 -45 -9 -58 -16 -58 -30 0 -20 45 -67 64 -69 27 -1 -33
-18 -69 -18 -22 -1 -92 -19 -155 -41 -189 -66 -264 -83 -375 -84 -90 -1 -105
2 -158 27 -53 27 -117 95 -117 126 0 6 -9 15 -20 21 -33 18 -55 -29 -55 -120
0 -68 4 -84 37 -151 80 -161 204 -297 488 -532 252 -209 449 -404 518 -510 56
-85 92 -171 92 -217 0 -17 9 -38 22 -50 26 -24 32 -25 52 -4 22 21 22 236 1
340 -18 86 -59 212 -87 269 -20 39 -19 39 38 -21 129 -135 437 -329 621 -392
136 -47 483 -78 561 -51 31 11 49 40 37 59 -3 5 -23 10 -44 10 -106 0 -306 75
-442 167 -108 73 -167 130 -285 274 -58 71 -106 129 -107 129 -1 0 -39 6 -83
14 -98 18 -133 32 -223 90 -69 44 -221 180 -221 198 0 12 19 1 211 -118 91
-57 174 -104 183 -104 9 0 83 -24 165 -54 81 -29 165 -56 187 -59 21 -4 113
-18 203 -33 158 -25 170 -26 305 -15 292 25 595 76 625 106 35 35 1 40 -247
40 l-237 0 -95 34 c-52 18 -122 47 -155 63 -60 31 -255 157 -309 201 l-30 24
80 7 c200 18 461 92 691 195 224 100 373 200 528 355 147 147 256 310 340 507
31 71 34 84 21 97 -22 22 -47 6 -96 -61 -134 -184 -469 -355 -777 -397 -80
-11 -247 -10 -327 2 -13 2 -25 -8 -38 -32 -11 -19 -30 -46 -41 -59 -51 -56
-179 -148 -267 -190 -81 -39 -103 -46 -156 -46 -56 0 -66 3 -94 30 -17 16 -33
40 -36 52 -10 38 41 126 116 201 68 68 70 69 152 86 215 45 297 56 403 56 132
0 213 18 384 86 399 159 565 293 702 569 67 135 83 195 54 195 -10 0 -64 -46
-119 -103 -84 -85 -116 -110 -191 -149 -199 -103 -380 -138 -470 -92 -156 81
-147 376 21 724 174 360 348 604 781 1097 154 176 160 189 78 208 -215 48
-261 201 -191 630 34 209 35 229 13 233 -10 2 -42 -12 -71 -31 l-53 -35 -7
131 c-19 360 -94 674 -251 1052 -104 249 -175 373 -242 416 -32 21 -39 23 -48
10z m-1016 -5744 c-85 -23 -280 13 -340 62 -19 15 5 13 175 -18 171 -31 194
-37 165 -44z"/>
<path d="M8324 12125 c-4 -9 19 -98 50 -198 91 -293 122 -487 113 -710 -3 -73
-9 -147 -13 -164 -6 -31 -5 -33 22 -33 16 0 40 9 54 20 14 11 28 20 31 20 3 0
-11 -66 -33 -147 -69 -263 -91 -386 -92 -518 -1 -145 17 -213 75 -279 63 -71
114 -90 246 -91 94 0 109 -2 100 -14 -7 -8 -75 -68 -152 -134 -224 -192 -305
-277 -447 -467 -108 -146 -409 -632 -486 -785 -90 -181 -129 -423 -83 -518 25
-51 81 -95 139 -108 43 -9 126 7 185 37 127 65 332 259 441 418 32 46 36 59
26 71 -7 8 -19 15 -26 15 -7 0 -60 -41 -116 -90 -179 -158 -252 -196 -360
-188 -76 6 -91 22 -82 88 19 142 98 286 368 670 264 375 660 823 885 1003 234
186 291 243 291 290 0 18 -5 19 -44 14 -24 -4 -113 -29 -197 -56 -256 -82
-323 -87 -422 -33 -141 76 -203 253 -163 464 27 144 127 401 251 647 19 38 31
71 28 75 -22 21 -92 -6 -194 -75 l-56 -38 -7 68 c-13 145 -93 403 -178 578
-59 121 -139 208 -154 168z"/>
<path d="M6090 11869 c-30 -22 -120 -72 -199 -111 -80 -39 -161 -83 -180 -99
-20 -15 -76 -49 -126 -74 -133 -69 -221 -138 -509 -401 -144 -132 -179 -174
-179 -214 0 -17 -6 -30 -13 -30 -19 0 -52 -47 -66 -93 -9 -29 -26 -51 -68 -84
-58 -46 -243 -146 -253 -137 -7 7 5 49 29 97 17 36 17 38 0 55 -17 16 -19 15
-52 -23 -66 -75 -114 -205 -114 -313 -1 -131 -208 -265 -445 -287 -68 -7 -71
-9 -99 -47 -37 -51 -136 -125 -188 -138 -52 -14 -94 0 -138 45 -41 43 -63 44
-122 6 -91 -58 -177 -198 -249 -404 -21 -60 -35 -116 -32 -124 9 -24 66 -9
137 35 74 46 129 68 134 52 10 -29 70 -95 89 -98 17 -3 22 4 28 35 10 53 27
82 76 131 55 54 128 90 199 98 51 5 59 3 104 -28 97 -66 121 -78 159 -78 42 0
44 5 26 76 -11 41 -10 46 15 79 15 20 37 42 49 49 14 10 118 23 298 40 153 14
284 26 292 26 9 0 13 -8 11 -22 -2 -13 -8 -80 -13 -150 l-9 -127 -51 -58 c-86
-97 -148 -242 -236 -558 -38 -138 -57 -179 -92 -202 -20 -13 -25 -12 -63 23
-38 34 -42 36 -57 21 -24 -24 -2 -88 48 -142 38 -41 39 -44 18 -50 -11 -4 -70
-4 -130 0 -123 8 -134 1 -80 -53 74 -74 228 -98 342 -54 21 9 36 5 80 -16 45
-23 67 -27 134 -27 89 0 130 17 158 65 22 37 6 50 -58 50 -29 0 -60 6 -72 15
-51 36 -55 159 -9 294 15 41 26 88 26 105 0 52 71 175 188 331 25 33 81 106
123 162 l78 102 -39 74 c-42 83 -65 172 -56 222 15 77 79 110 124 62 28 -30
28 -44 -3 -101 l-25 -47 46 -60 c43 -56 48 -60 78 -53 41 9 80 29 141 74 63
46 98 60 260 98 299 72 625 114 850 110 l160 -3 0 25 c0 23 -6 25 -188 62
-357 71 -527 84 -679 53 -76 -16 -98 -32 -98 -71 0 -37 -40 -75 -86 -81 -43
-5 -84 9 -84 30 0 21 115 121 182 158 155 86 365 158 608 209 179 38 257 49
446 63 l159 12 0 25 c0 22 -6 26 -50 34 -27 5 -214 10 -415 10 -334 1 -378 -1
-517 -22 -83 -13 -189 -33 -234 -45 -81 -22 -82 -22 -94 -62 -28 -97 -84 -151
-164 -162 -51 -7 -53 5 -12 68 75 118 301 248 803 460 418 177 429 182 501
193 59 9 69 14 74 34 11 45 -16 46 -242 16 -316 -43 -669 -160 -888 -295 -27
-17 -51 -28 -53 -26 -2 2 10 26 27 53 95 149 441 430 669 542 70 34 134 87
127 105 -20 56 -485 -132 -769 -311 -168 -105 -225 -149 -333 -257 -81 -81
-108 -115 -138 -177 -27 -56 -44 -79 -60 -83 -12 -2 -60 -11 -107 -19 -66 -12
-112 -29 -203 -75 -65 -33 -114 -55 -110 -48 4 7 41 57 83 112 42 55 82 115
89 132 10 25 18 32 35 28 69 -14 102 -15 158 -5 142 26 239 110 398 345 286
423 548 705 748 803 55 28 67 53 33 72 -28 14 -30 14 -91 -31z"/>
<path d="M5900 9825 c-227 -36 -363 -95 -453 -195 -77 -85 -106 -169 -107
-304 l0 -78 -101 96 c-92 87 -104 96 -140 96 -75 0 -78 -60 -10 -208 106 -229
102 -260 -96 -604 -105 -183 -148 -279 -162 -366 -18 -112 24 -208 88 -200 20
2 36 22 81 99 30 53 72 118 93 146 41 56 44 65 22 83 -12 10 -21 8 -47 -8 -41
-26 -90 -76 -117 -122 -25 -42 -26 -29 -5 53 19 73 56 149 139 282 89 144 111
184 129 238 48 143 36 293 -35 441 -10 22 -17 41 -15 44 10 9 168 -154 214
-221 54 -79 105 -176 116 -221 13 -52 8 -171 -9 -213 -9 -22 -30 -50 -46 -62
-21 -15 -29 -29 -27 -44 5 -37 42 -33 85 10 58 58 78 106 77 188 0 69 -7 95
-63 234 l-22 53 47 -27 c40 -24 48 -25 61 -13 12 13 21 13 66 1 76 -21 237
-12 301 16 67 30 120 74 141 118 48 100 -14 231 -123 264 -82 24 -120 -13 -66
-66 24 -24 26 -32 22 -82 -4 -48 -10 -61 -37 -85 -55 -49 -162 -28 -236 47
-72 71 -68 161 10 241 61 63 135 88 265 88 122 0 197 -23 260 -80 50 -45 63
-81 58 -153 -8 -118 -93 -240 -283 -407 -183 -161 -287 -272 -330 -354 -39
-72 -40 -78 -40 -170 0 -86 3 -101 32 -162 78 -165 236 -258 438 -258 44 0
107 7 138 15 137 36 266 133 326 244 59 112 36 123 -97 48 -136 -77 -190 -97
-267 -97 -35 0 -76 5 -92 11 -79 29 -143 102 -157 176 -9 50 10 130 49 210 56
113 228 285 270 269 9 -3 44 6 78 20 34 14 89 28 122 31 55 5 63 3 93 -22 20
-17 37 -44 45 -73 12 -40 20 -49 51 -61 34 -13 38 -13 62 10 14 13 42 57 62
98 34 69 37 82 40 180 3 73 -1 127 -12 173 -64 274 -259 545 -434 602 -26 9
-95 22 -154 31 -59 8 -117 16 -130 19 -13 2 -88 -6 -168 -19z"/>
<path d="M8618 9347 c-8 -7 -35 -39 -60 -72 -25 -33 -90 -112 -144 -175 -220
-255 -287 -347 -358 -487 -44 -87 -86 -211 -86 -251 0 -59 57 -77 156 -47 72
21 162 83 261 178 l86 83 1 165 c2 206 12 246 117 446 73 141 78 153 60 162
-13 7 -23 7 -33 -2z"/>
<path d="M5320 8424 c-211 -158 -265 -216 -315 -340 -22 -54 -27 -60 -62 -67
-72 -16 -192 -3 -260 27 -74 34 -88 29 -79 -27 11 -66 59 -155 151 -276 47
-63 90 -122 96 -132 8 -17 7 -18 -15 -9 -97 36 -222 123 -282 194 -22 26 -55
74 -74 109 -29 49 -41 62 -60 62 -22 0 -26 -5 -31 -50 -15 -124 32 -250 152
-400 39 -49 87 -114 106 -143 l34 -52 -18 -63 c-15 -54 -25 -70 -84 -125 -91
-85 -124 -156 -124 -267 0 -72 4 -88 37 -157 48 -102 121 -173 318 -312 291
-206 381 -280 478 -390 155 -176 161 -339 17 -482 -230 -231 -702 -229 -845 2
-26 41 -44 127 -35 170 l6 35 30 -60 c38 -76 112 -144 173 -160 129 -32 324
10 397 85 31 33 34 40 33 97 -1 115 -82 276 -213 426 -31 36 -110 122 -177
192 -151 159 -212 239 -272 358 -43 87 -47 100 -46 165 0 54 7 87 28 136 79
187 90 219 94 271 5 70 -18 128 -78 193 -129 139 -312 128 -465 -28 -95 -97
-130 -168 -160 -322 -18 -89 -24 -146 -20 -184 10 -96 13 -102 42 -98 21 2 29
10 35 35 12 47 60 83 111 83 50 0 113 -28 146 -64 22 -24 23 -29 13 -65 -16
-52 -43 -84 -107 -126 -100 -67 -166 -156 -213 -288 -22 -63 -26 -89 -26 -207
-1 -88 4 -152 13 -183 12 -43 17 -48 39 -45 23 3 27 10 38 67 39 190 163 290
323 263 94 -16 183 -64 239 -131 86 -101 95 -91 -79 -88 -153 2 -154 2 -219
-29 -152 -72 -240 -224 -240 -415 0 -208 126 -476 282 -600 50 -40 180 -106
311 -160 58 -23 59 -23 73 -4 21 28 17 37 -29 70 -48 34 -92 113 -106 188 -4
26 -7 47 -4 47 2 0 39 -20 82 -45 336 -196 654 -131 1009 203 l74 69 11 -26
c20 -45 14 -168 -12 -246 -38 -115 -67 -167 -188 -338 -128 -179 -157 -233
-178 -334 -30 -139 -11 -274 56 -411 70 -143 168 -225 413 -343 190 -91 305
-129 415 -135 160 -9 148 20 -52 122 -134 69 -159 86 -232 158 -95 95 -166
199 -209 305 -27 68 -30 87 -30 181 0 185 63 340 240 585 109 152 181 274 208
355 52 155 61 308 22 401 -66 161 -232 340 -556 599 -236 190 -388 338 -443
430 -47 81 -102 249 -118 362 -15 100 -2 182 34 224 l22 25 95 -17 c165 -29
408 -8 559 48 63 24 131 84 131 117 0 19 -6 21 -62 21 -181 0 -363 56 -442
135 -64 63 -81 114 -80 230 1 131 34 228 131 386 39 63 85 140 103 171 30 55
37 99 15 104 -5 1 -48 -27 -95 -62z"/>
<path d="M5500 8073 c0 -5 -5 -37 -10 -73 -27 -191 72 -396 231 -473 195 -96
448 -20 597 179 57 77 132 215 132 245 0 11 -7 19 -17 19 -18 0 -32 -9 -110
-63 -105 -73 -327 -115 -465 -86 -80 17 -125 48 -227 158 -55 60 -100 101
-112 101 -10 0 -19 -3 -19 -7z"/>
<path d="M8636 7683 c-49 -104 -182 -315 -285 -453 -70 -93 -235 -266 -315
-329 -168 -133 -374 -221 -519 -221 -62 0 -78 -21 -42 -54 52 -48 128 -70 250
-70 130 0 229 24 339 82 138 72 320 283 455 527 95 171 176 395 183 505 3 42
1 45 -22 48 -21 2 -29 -4 -44 -35z"/>
<path d="M6125 5308 c-2 -7 -12 -35 -21 -63 -54 -167 -182 -374 -319 -515
-114 -118 -130 -156 -130 -305 0 -98 1 -102 40 -173 124 -229 294 -368 800
-657 380 -217 539 -332 663 -477 116 -136 127 -181 127 -523 0 -285 0 -284
-55 -480 -16 -55 -36 -155 -46 -222 -16 -115 -16 -130 0 -270 19 -162 36 -253
61 -329 41 -121 255 -383 367 -448 26 -15 65 -28 90 -30 24 -1 107 -17 185
-35 l142 -32 193 8 193 8 0 30 0 30 -75 7 c-153 16 -342 79 -477 160 -80 48
-184 148 -218 209 -24 45 -30 66 -29 119 0 129 70 199 208 208 127 8 237 -28
339 -111 57 -46 103 -65 120 -48 15 15 -26 90 -86 157 -29 32 -108 127 -174
209 -66 83 -187 219 -268 304 -200 210 -258 304 -259 424 0 70 32 100 116 105
166 10 400 -115 483 -258 12 -20 30 -36 43 -38 18 -3 22 1 22 26 0 186 -335
680 -650 958 -85 76 -115 94 -286 179 -158 78 -198 102 -236 143 -42 44 -68
99 -68 142 0 71 63 150 135 170 68 19 126 5 254 -61 100 -52 116 -58 129 -46
12 13 12 21 2 53 -31 95 -106 161 -237 210 -97 37 -218 60 -490 94 -270 34
-355 50 -435 80 -73 27 -106 54 -129 104 -23 51 -25 155 -4 196 44 85 191 89
525 15 39 -8 69 -10 74 -5 13 13 -15 51 -80 106 -112 95 -266 250 -322 324
-73 97 -138 223 -153 299 -10 54 -14 61 -36 61 -13 0 -26 -6 -28 -12z"/>
<path d="M5056 4342 c-2 -4 -14 -57 -26 -117 -27 -137 -37 -326 -21 -392 28
-109 131 -278 244 -399 125 -134 279 -233 522 -335 136 -57 159 -71 249 -146
55 -46 103 -83 107 -83 4 0 26 34 49 75 33 60 50 80 83 97 137 69 398 -6 498
-145 60 -82 32 -146 -112 -259 -112 -88 -127 -105 -155 -183 -26 -72 -33 -165
-11 -165 17 0 54 25 97 66 43 40 78 54 134 54 133 0 225 -93 196 -199 -6 -21
-54 -106 -106 -187 -216 -332 -228 -361 -228 -529 -1 -114 23 -249 50 -292 26
-42 57 -30 95 38 43 76 73 99 133 99 51 0 62 -10 93 -90 15 -39 17 -82 18
-310 l0 -265 33 -95 c41 -118 99 -217 171 -294 81 -85 133 -118 179 -114 36 3
37 4 39 47 3 75 12 105 45 145 41 50 82 66 165 66 58 0 84 -7 178 -46 340
-142 499 -175 670 -139 259 55 510 313 586 601 26 101 28 266 4 379 -64 303
-310 632 -523 701 -46 14 -55 15 -68 3 -17 -18 0 -46 117 -189 218 -269 279
-395 279 -580 0 -263 -138 -450 -380 -516 -30 -8 -104 -17 -165 -20 -243 -14
-542 65 -757 199 -231 144 -391 430 -457 818 -44 255 -40 374 24 737 48 273
41 413 -24 547 -60 121 -235 305 -345 362 -97 50 -187 70 -408 88 -210 18
-310 38 -500 102 -403 133 -667 354 -718 600 -7 34 -10 99 -8 155 5 96 -1 118
-28 118 -7 0 -15 -3 -18 -8z"/>
</g>
</svg>
