<?xml version="1.0" standalone="no"?>
<!DOCTYPE svg PUBLIC "-//W3C//DTD SVG 20010904//EN"
 "http://www.w3.org/TR/2001/REC-SVG-20010904/DTD/svg10.dtd">
<svg version="1.0" xmlns="http://www.w3.org/2000/svg"
 width="925.000000pt" height="1280.000000pt" viewBox="0 0 925.000000 1280.000000"
 preserveAspectRatio="xMidYMid meet">
<metadata>
Created by potrace 1.15, written by Peter Selinger 2001-2017
</metadata>
<g transform="translate(0.000000,1280.000000) scale(0.100000,-0.100000)"
fill="#000000" stroke="none">
<path d="M3496 12730 c-14 -79 -76 -251 -132 -368 -108 -228 -178 -299 -569
-572 -222 -155 -301 -229 -430 -405 -82 -111 -119 -149 -205 -215 -107 -82
-119 -98 -135 -175 -8 -37 -26 -87 -40 -111 -35 -59 -126 -156 -183 -194 -41
-27 -52 -31 -87 -24 -66 12 -85 7 -121 -27 -109 -106 -127 -339 -35 -449 l30
-35 48 46 c65 63 80 69 191 78 107 8 127 17 160 67 20 31 86 87 115 97 7 2 9
7 6 11 -10 11 -75 -19 -130 -59 -45 -34 -55 -37 -152 -44 -110 -9 -159 -26
-198 -67 -12 -13 -28 -24 -35 -24 -36 0 -31 193 7 260 35 63 47 67 123 47 168
-45 232 -10 369 200 35 54 70 104 79 111 8 6 46 19 84 28 38 8 98 22 133 30
36 8 96 29 134 46 l70 32 -47 12 c-67 17 -86 38 -86 90 0 182 226 410 644 649
149 86 175 108 219 193 51 97 123 285 147 384 20 83 45 348 38 404 -3 25 -5
24 -12 -16z"/>
<path d="M4157 12723 c-3 -5 -17 -38 -30 -74 -63 -167 -160 -320 -291 -456
-153 -160 -302 -267 -586 -418 -284 -152 -420 -245 -561 -385 -105 -104 -173
-226 -149 -270 36 -68 234 -32 482 88 274 134 430 272 735 655 205 256 284
387 348 580 45 136 80 326 52 280z"/>
<path d="M4215 11550 c-67 -14 -148 -48 -220 -91 l-68 -42 -101 17 c-56 10
-148 19 -206 22 l-105 4 70 -25 c39 -13 147 -63 241 -110 197 -97 253 -142
316 -247 70 -118 94 -136 303 -218 170 -68 191 -92 250 -292 24 -83 29 -90
125 -197 115 -128 125 -153 117 -276 -4 -57 -18 -121 -52 -224 l-47 -145 10
-245 c14 -318 -3 -465 -84 -743 -19 -66 -33 -122 -31 -124 1 -2 32 40 67 92
72 107 102 134 160 141 59 8 87 -3 147 -60 62 -58 95 -110 114 -177 l13 -45 7
60 c18 146 -24 250 -152 377 -49 48 -89 92 -89 97 0 5 16 67 35 137 69 251 96
442 99 717 4 241 4 241 113 241 97 1 170 -38 237 -125 45 -58 49 -61 43 -32
-9 45 -64 155 -99 197 -40 49 -120 102 -255 170 -122 60 -119 57 -202 202
-122 213 -359 466 -556 594 -131 85 -155 109 -155 159 0 34 5 44 33 65 57 44
142 69 234 69 45 1 81 2 80 4 -2 1 -34 14 -73 29 -55 21 -91 27 -174 30 -58 2
-123 -1 -145 -6z"/>
<path d="M6190 11513 c-58 -20 -120 -63 -160 -110 -35 -43 -116 -203 -154
-308 -17 -44 -51 -104 -95 -162 -100 -135 -101 -159 -10 -290 165 -239 177
-372 90 -963 -28 -195 -103 -661 -166 -1035 -141 -845 -147 -886 -148 -1015
-1 -87 3 -115 21 -162 34 -85 83 -142 148 -174 54 -26 60 -27 121 -17 37 7 81
22 104 37 102 68 108 216 14 331 l-24 30 1 -67 c1 -84 -10 -100 -66 -96 -93 7
-91 40 39 1023 79 596 118 934 145 1250 43 515 81 688 160 745 39 28 158 27
260 -1 310 -85 843 -376 1256 -685 136 -102 195 -165 258 -278 31 -56 63 -98
89 -119 127 -99 235 -241 386 -507 252 -444 535 -1117 642 -1528 37 -142 37
-195 4 -244 -33 -49 -32 -81 8 -142 30 -48 32 -56 32 -141 0 -80 -3 -95 -28
-139 -25 -44 -25 -48 -6 -30 38 33 79 106 106 189 25 73 27 94 27 230 0 288
-91 644 -261 1030 -272 615 -379 821 -604 1165 -59 92 -127 202 -150 246 -50
95 -102 152 -189 209 -36 23 -134 99 -219 168 -477 391 -975 650 -1497 777
-93 23 -176 43 -186 46 -21 6 -58 81 -51 103 4 9 24 38 45 65 58 74 59 84 14
201 -23 61 -20 114 12 175 62 123 173 152 287 74 20 -14 39 -23 42 -20 7 7
-34 80 -59 103 -53 50 -155 65 -238 36z"/>
<path d="M3674 11157 c-82 -117 -252 -220 -506 -307 -75 -26 -76 -28 -53 -104
8 -27 15 -69 15 -93 0 -23 5 -43 10 -43 22 0 99 43 165 92 39 29 136 118 216
198 129 127 149 152 168 204 12 33 21 68 19 79 -2 15 -9 10 -34 -26z"/>
<path d="M2574 10950 c-109 -28 -170 -63 -207 -118 -54 -79 -89 -107 -159
-126 -82 -22 -123 -47 -144 -87 l-16 -32 27 21 c33 26 51 27 135 6 86 -22 123
-11 229 65 127 92 203 109 265 60 49 -38 43 -97 -16 -165 -44 -50 -91 -69
-234 -93 -208 -36 -209 -36 -373 -181 -117 -102 -151 -120 -238 -120 l-68 0
25 -20 c59 -45 190 -103 243 -108 l54 -4 59 67 c32 37 72 73 87 81 15 8 103
32 195 54 349 81 512 165 587 301 38 69 39 138 5 229 -33 88 -96 152 -169 174
-72 21 -198 20 -287 -4z"/>
<path d="M3440 10751 c-13 -25 -13 -101 0 -101 6 0 28 11 50 25 48 30 54 65
15 83 -37 17 -53 15 -65 -7z"/>
<path d="M3620 10714 c-122 -87 -293 -152 -429 -162 -80 -7 -87 -9 -98 -33 -7
-15 -33 -49 -58 -77 -25 -27 -45 -52 -45 -54 0 -2 51 2 113 9 194 22 298 67
419 181 75 71 155 162 141 162 -4 -1 -24 -12 -43 -26z"/>
<path d="M3338 10685 c-53 -51 -57 -61 -28 -70 29 -9 57 11 70 50 21 64 9 69
-42 20z"/>
<path d="M3686 10607 c-3 -29 -6 -70 -6 -92 0 -22 -8 -61 -17 -87 -16 -45 -16
-50 0 -83 9 -19 24 -35 32 -35 19 0 66 97 91 186 l17 65 -39 40 c-64 66 -70
67 -78 6z"/>
<path d="M3586 10552 c-53 -55 -55 -71 -11 -112 20 -19 27 -21 39 -11 17 15
29 79 24 134 l-3 38 -49 -49z"/>
<path d="M1656 10488 c-25 -38 -46 -97 -38 -102 19 -11 112 54 112 79 0 15
-33 45 -48 45 -6 0 -18 -10 -26 -22z"/>
<path d="M3814 10413 c-71 -152 -86 -223 -49 -223 18 0 79 72 117 138 l31 54
-24 50 c-13 27 -26 51 -31 54 -4 3 -23 -30 -44 -73z"/>
<path d="M6387 10473 c-10 -9 10 -37 178 -248 434 -542 856 -1174 1035 -1548
42 -87 64 -150 79 -219 23 -113 41 -152 86 -193 39 -36 70 -112 125 -306 98
-348 154 -726 181 -1216 13 -254 7 -1130 -10 -1338 -69 -846 -192 -1480 -560
-2890 l-50 -190 -60 -56 c-69 -64 -74 -84 -41 -158 11 -24 20 -57 20 -75 0
-68 -88 -211 -168 -271 -56 -44 -35 -45 38 -3 123 70 217 198 273 373 23 71
170 621 301 1125 292 1128 409 1964 409 2925 0 779 -72 1347 -243 1921 -42
141 -52 187 -57 279 l-6 109 -57 61 c-76 81 -118 146 -245 375 -440 793 -895
1419 -1109 1525 -48 24 -105 33 -119 18z"/>
<path d="M6221 10444 c-12 -15 -21 -34 -21 -43 0 -9 34 -133 75 -276 174 -600
296 -1131 399 -1735 42 -247 56 -377 56 -519 0 -104 1 -109 39 -188 21 -44 44
-105 50 -134 12 -59 123 -906 143 -1089 17 -156 17 -767 0 -925 -49 -455 -103
-756 -178 -1004 -22 -73 -33 -92 -82 -143 l-56 -58 12 -73 c12 -82 9 -106 -24
-157 -25 -40 -60 -74 -123 -119 -56 -39 -37 -40 44 -1 234 112 419 598 515
1352 55 433 47 803 -31 1488 -80 703 -81 716 -74 885 l6 160 -42 69 c-52 86
-52 88 -145 558 -171 873 -340 1556 -455 1845 -55 139 -71 154 -108 107z"/>
<path d="M2853 10313 c-35 -14 -63 -28 -63 -32 0 -14 110 -62 188 -82 132 -35
312 -36 500 -2 18 3 31 7 30 9 -2 2 -55 14 -118 27 -122 26 -164 42 -219 82
-31 23 -42 25 -145 25 -95 -1 -120 -5 -173 -27z"/>
<path d="M3920 10285 c0 -9 -34 -50 -75 -91 -42 -40 -80 -85 -85 -100 -14 -37
-12 -74 5 -80 20 -8 99 39 157 94 41 38 48 50 47 81 0 20 -5 51 -12 70 -13 37
-37 54 -37 26z"/>
<path d="M6972 10194 c-25 -18 -28 -52 -7 -80 14 -19 14 -19 15 0 0 11 12 32
26 47 25 26 25 28 7 38 -15 7 -25 6 -41 -5z"/>
<path d="M7115 10111 c-12 -20 -22 -104 -16 -129 l8 -27 17 35 c10 19 34 49
54 67 l37 32 -37 16 c-43 17 -55 19 -63 6z"/>
<path d="M3841 9985 c-114 -58 -168 -103 -157 -130 5 -15 15 -17 59 -11 28 3
88 17 132 30 73 21 81 26 86 52 12 53 10 114 -3 113 -7 0 -60 -25 -117 -54z"/>
<path d="M6556 10018 c-9 -30 -14 -58 -9 -58 2 0 11 7 19 15 9 8 26 15 38 15
29 0 39 10 25 27 -14 17 -68 17 -73 1z"/>
<path d="M7271 9997 c-38 -18 -63 -71 -64 -130 -2 -61 10 -127 23 -127 10 0
14 13 30 93 15 74 42 106 105 121 l49 13 -57 22 c-68 25 -56 24 -86 8z"/>
<path d="M6226 9858 c-23 -32 -20 -38 19 -38 40 0 46 17 16 44 -18 16 -20 16
-35 -6z"/>
<path d="M7430 9798 c-25 -41 -34 -121 -26 -222 8 -98 21 -117 31 -44 11 82
42 172 69 201 21 23 34 27 76 27 32 0 49 4 45 10 -13 20 -105 60 -140 60 -29
0 -39 -6 -55 -32z"/>
<path d="M6666 9804 c-18 -17 -32 -62 -22 -71 3 -3 15 6 27 20 16 21 29 27 62
27 l42 1 -24 19 c-28 24 -64 26 -85 4z"/>
<path d="M3820 9799 c-157 -25 -186 -32 -220 -49 -43 -22 -57 -47 -37 -67 17
-17 181 -29 248 -19 42 6 47 10 77 65 48 88 47 88 -68 70z"/>
<path d="M6230 9648 c-19 -32 -26 -58 -15 -58 3 0 17 7 30 16 16 11 34 14 55
9 36 -8 37 -3 9 36 -27 38 -54 37 -79 -3z"/>
<path d="M3317 9614 c-86 -27 -71 -64 47 -112 39 -17 112 -40 162 -53 l92 -23
38 27 c22 14 63 51 92 80 l54 54 -74 7 c-40 4 -104 14 -143 22 -88 18 -206 17
-268 -2z"/>
<path d="M7653 9598 c-51 -56 -80 -169 -70 -275 8 -80 23 -102 32 -47 17 98
59 188 107 229 30 25 36 27 92 20 l60 -6 -19 22 c-24 26 -131 79 -161 79 -11
0 -30 -10 -41 -22z"/>
<path d="M6787 9589 c-27 -16 -47 -64 -47 -116 l0 -47 28 30 c46 51 82 69 147
74 l60 5 -49 33 c-52 33 -104 41 -139 21z"/>
<path d="M3085 9495 c-78 -22 -125 -46 -125 -65 0 -23 75 -56 273 -122 l158
-52 43 22 c49 27 116 79 116 92 0 5 -39 21 -87 36 -49 15 -128 44 -177 65 -96
42 -123 45 -201 24z"/>
<path d="M6235 9449 c-19 -17 -35 -40 -35 -50 0 -18 2 -19 30 -4 34 18 68 19
106 5 54 -21 49 12 -10 58 -38 29 -49 28 -91 -9z"/>
<path d="M2788 9354 c-144 -26 -213 -64 -178 -98 8 -8 74 -30 145 -50 72 -19
184 -53 250 -75 l119 -41 51 25 c81 39 148 86 139 95 -16 15 -405 160 -427
159 -12 -1 -57 -7 -99 -15z"/>
<path d="M7882 9335 c-59 -50 -93 -146 -107 -306 -9 -93 8 -116 25 -36 16 79
63 170 116 227 l47 50 68 0 c38 0 69 4 69 10 0 21 -94 73 -140 78 -39 3 -51 0
-78 -23z"/>
<path d="M6904 9301 c-65 -40 -103 -111 -110 -211 -5 -72 -9 -74 58 31 46 72
93 99 172 99 31 0 76 -7 102 -16 25 -8 48 -13 51 -10 10 10 -67 76 -118 101
-58 30 -113 32 -155 6z"/>
<path d="M6258 9279 c-18 -10 -92 -129 -85 -136 3 -2 30 8 61 23 53 27 58 27
106 15 28 -7 54 -11 57 -8 9 9 -45 95 -67 107 -23 13 -50 12 -72 -1z"/>
<path d="M2505 9181 c-173 -62 -251 -151 -131 -151 56 0 255 -42 349 -74 43
-14 87 -26 100 -26 25 0 199 91 204 107 6 17 -276 114 -457 158 -8 2 -37 -5
-65 -14z"/>
<path d="M8060 9073 c-75 -63 -120 -191 -120 -341 0 -47 3 -83 6 -80 3 4 15
42 26 85 25 99 81 207 125 240 31 24 39 25 113 20 44 -3 80 -3 80 1 0 3 -11
20 -24 37 -52 68 -150 86 -206 38z"/>
<path d="M6221 8974 c-38 -33 -97 -121 -89 -130 2 -2 28 14 56 35 83 63 131
65 217 10 26 -17 50 -28 52 -25 3 3 -6 25 -21 50 -60 102 -143 125 -215 60z"/>
<path d="M7045 8980 c-90 -28 -165 -142 -172 -263 l-4 -72 38 68 c101 178 189
213 362 142 47 -19 87 -32 90 -29 8 8 -112 120 -150 140 -38 19 -123 27 -164
14z"/>
<path d="M2228 8951 c-38 -13 -116 -68 -129 -92 -6 -13 -7 -25 -2 -30 5 -5 76
-18 158 -29 82 -11 176 -25 210 -31 57 -11 63 -10 115 16 67 34 130 75 130 85
0 10 -83 45 -155 65 -68 18 -287 29 -327 16z"/>
<path d="M3939 8906 c-200 -70 -309 -245 -280 -449 22 -156 114 -244 245 -235
104 6 166 72 166 178 0 57 -12 64 -30 20 -23 -57 -93 -69 -129 -24 -65 83 37
207 155 189 56 -8 181 -71 259 -130 286 -216 668 -646 1147 -1290 99 -132 188
-251 199 -265 48 -62 -141 290 -349 645 -318 546 -556 884 -797 1134 -121 125
-207 192 -293 227 -79 33 -201 33 -293 0z"/>
<path d="M6255 8778 c-39 -21 -87 -74 -112 -121 -13 -27 -22 -51 -20 -53 2 -2
30 11 62 31 32 19 74 38 94 41 44 9 109 -8 161 -41 22 -14 42 -25 45 -25 11 0
-6 44 -31 83 -51 79 -141 117 -199 85z"/>
<path d="M8280 8761 c-66 -20 -123 -91 -159 -198 -27 -80 -46 -269 -36 -367 4
-43 8 -76 10 -74 2 2 13 61 25 132 37 218 85 328 173 391 49 35 121 40 175 11
54 -28 51 -8 -7 46 -73 67 -112 80 -181 59z"/>
<path d="M1975 8712 c-41 -26 -103 -96 -111 -127 -3 -14 -3 -36 0 -51 l7 -25
107 6 c80 5 126 3 182 -9 41 -9 84 -16 95 -16 28 0 182 191 163 201 -26 14
-231 39 -321 39 -72 0 -99 -4 -122 -18z"/>
<path d="M7146 8626 c-52 -20 -90 -58 -116 -118 -25 -59 -52 -181 -48 -217 3
-21 10 -13 49 54 55 96 122 161 174 171 64 12 149 -2 240 -40 49 -20 91 -33
94 -31 10 10 -122 134 -172 161 -61 33 -161 42 -221 20z"/>
<path d="M6256 8496 c-21 -8 -56 -32 -77 -52 -40 -39 -123 -186 -117 -206 2
-6 32 14 67 45 35 31 88 68 119 83 72 34 127 29 231 -23 42 -20 80 -39 86 -42
13 -6 -21 46 -69 102 -73 87 -162 121 -240 93z"/>
<path d="M1873 8429 c-64 -19 -196 -217 -172 -260 12 -24 18 -24 137 2 53 12
149 25 212 28 l114 6 35 103 c18 56 31 105 28 108 -20 20 -294 30 -354 13z"/>
<path d="M3072 8428 c-44 -15 -117 -80 -148 -134 -63 -107 -30 -254 70 -315
44 -27 70 -24 111 12 42 37 44 49 7 49 -56 0 -69 48 -27 98 46 55 133 47 162
-14 16 -32 15 -38 0 -88 -10 -29 -47 -103 -83 -162 -37 -60 -82 -136 -102
-169 -48 -79 -47 -112 7 -240 148 -348 154 -367 123 -405 l-20 -25 -254 0
c-257 0 -373 11 -450 42 -52 21 -50 30 17 83 l40 33 -47 -5 c-52 -6 -198 -71
-225 -100 -17 -19 -17 -20 0 -33 25 -18 149 -51 347 -91 252 -52 420 -74 564
-74 l129 0 32 35 c52 55 70 121 69 255 -1 126 -23 240 -75 386 l-29 80 75 130
c92 157 115 225 115 343 0 70 -5 95 -24 136 -49 104 -161 176 -281 181 -38 2
-85 -2 -103 -8z"/>
<path d="M8425 8383 c-151 -79 -226 -299 -224 -658 l1 -160 24 138 c47 278
102 441 173 520 65 72 137 85 229 42 30 -14 56 -25 58 -25 3 0 -3 15 -12 33
-21 41 -71 95 -106 113 -35 18 -105 17 -143 -3z"/>
<path d="M5470 8187 c-62 -100 -94 -132 -148 -147 -68 -18 -121 6 -234 103
-32 27 -58 46 -58 42 0 -4 19 -42 42 -84 78 -141 177 -221 255 -206 47 9 116
74 142 135 24 55 64 215 59 234 -2 7 -28 -27 -58 -77z"/>
<path d="M2422 8214 c-112 -56 -192 -178 -192 -294 0 -102 58 -263 134 -370
18 -25 36 -51 40 -58 7 -11 -23 -13 -173 -6 -137 5 -181 4 -181 -5 0 -24 72
-41 299 -67 225 -26 233 -27 269 -9 l37 17 -40 32 c-104 81 -154 161 -181 284
-35 170 2 292 89 292 50 0 73 -30 61 -77 -8 -31 -15 -38 -48 -47 -36 -11 -37
-12 -20 -27 52 -45 90 -49 149 -15 77 46 117 166 84 253 -40 107 -207 157
-327 97z"/>
<path d="M7304 8216 c-39 -18 -96 -84 -127 -149 -30 -64 -90 -237 -84 -243 2
-3 23 27 46 65 58 97 132 176 186 197 92 35 220 -14 363 -137 46 -39 85 -70
87 -67 8 8 -100 144 -170 214 -106 107 -225 154 -301 120z"/>
<path d="M6240 8152 c-49 -52 -138 -186 -156 -237 -4 -11 28 16 72 61 151 155
224 158 389 19 35 -30 67 -55 69 -55 13 0 -75 131 -123 183 -64 69 -96 87
-153 87 -38 0 -47 -5 -98 -58z"/>
<path d="M4125 8175 c-46 -16 -100 -73 -143 -148 -35 -62 -85 -197 -77 -206 4
-3 11 2 16 11 41 74 169 196 252 241 38 20 55 22 175 21 72 -1 132 2 132 6 0
11 -135 66 -191 79 -60 14 -116 13 -164 -4z"/>
<path d="M2050 8123 c-90 -8 -277 -36 -298 -44 -35 -13 -72 -58 -103 -124 -35
-72 -37 -110 -8 -125 16 -9 55 -3 187 29 92 22 197 45 233 51 l66 12 7 94 c4
52 4 98 1 104 -6 10 -15 10 -85 3z"/>
<path d="M8574 7986 c-120 -56 -195 -219 -239 -527 -18 -125 -31 -715 -18
-804 l9 -60 7 80 c72 823 164 1146 342 1205 44 15 93 7 158 -26 27 -14 51 -23
54 -21 6 7 -23 64 -55 106 -52 70 -164 91 -258 47z"/>
<path d="M4180 7962 c-59 -38 -122 -112 -159 -187 -37 -74 -93 -241 -89 -262
2 -9 28 26 58 77 30 51 85 124 121 161 134 139 272 167 544 113 28 -5 27 -4
-15 25 -25 17 -81 45 -125 63 -67 26 -97 32 -185 35 -102 5 -106 4 -150 -25z"/>
<path d="M5426 7851 c-49 -50 -61 -54 -121 -41 -26 6 -50 9 -52 6 -15 -15 109
-156 136 -156 27 0 86 152 79 205 l-3 26 -39 -40z"/>
<path d="M2000 7830 c-164 -30 -262 -61 -292 -90 -25 -25 -58 -112 -58 -151 0
-24 16 -32 37 -20 10 5 71 19 136 30 64 12 156 34 204 49 l88 28 3 87 c2 66 0
87 -10 86 -7 0 -56 -9 -108 -19z"/>
<path d="M6319 7800 c-64 -34 -127 -138 -160 -268 -10 -41 -19 -79 -19 -85 0
-5 21 19 46 54 95 132 144 169 217 169 65 0 134 -40 223 -130 43 -43 80 -78
81 -76 2 2 -11 36 -28 77 -96 224 -235 325 -360 259z"/>
<path d="M4440 7776 c-226 -51 -402 -293 -445 -610 -8 -58 9 -56 19 3 10 66
111 254 165 310 68 69 160 126 255 158 103 33 275 38 371 11 117 -34 114 -34
70 2 -120 97 -314 153 -435 126z"/>
<path d="M7325 7762 c-38 -24 -86 -79 -119 -134 -28 -48 -79 -194 -74 -210 2
-6 25 18 50 54 58 81 147 163 194 178 119 40 295 -72 422 -269 31 -48 63 -97
69 -107 17 -26 -21 75 -58 155 -65 142 -176 273 -270 321 -62 32 -173 38 -214
12z"/>
<path d="M2037 7595 c-21 -7 -41 -16 -45 -20 -13 -13 25 -25 81 -25 54 0 57 1
57 24 0 37 -30 44 -93 21z"/>
<path d="M8745 7571 c-170 -77 -216 -300 -375 -1806 -73 -692 -87 -813 -115
-975 -30 -173 -82 -401 -136 -599 -22 -79 -38 -146 -36 -148 12 -11 131 278
187 452 84 265 111 427 205 1265 130 1153 190 1490 296 1645 50 73 142 88 220
35 25 -16 46 -25 48 -19 7 20 -74 123 -114 146 -50 28 -124 30 -180 4z"/>
<path d="M1712 7513 c-61 -21 -128 -92 -201 -215 -43 -71 -80 -120 -111 -145
-26 -21 -70 -59 -98 -85 l-52 -46 0 -138 0 -138 -61 -102 c-74 -126 -90 -193
-71 -307 18 -107 69 -201 168 -305 45 -48 84 -85 87 -82 3 3 -12 46 -34 95
-52 123 -73 206 -64 264 6 41 15 54 81 116 83 79 93 101 94 214 l0 64 79 76
c70 68 80 83 90 129 6 29 11 62 11 72 0 11 9 24 20 30 21 11 226 50 368 71 70
10 93 18 149 55 37 24 86 51 110 60 24 9 43 21 43 25 0 14 -144 10 -255 -6
-119 -17 -189 -19 -216 -5 -29 16 -49 64 -49 118 0 55 12 72 52 72 35 0 49
-24 36 -62 -6 -16 -8 -31 -6 -34 10 -9 96 76 102 101 10 39 -19 84 -67 106
-51 23 -144 24 -205 2z"/>
<path d="M4665 7479 c-219 -22 -407 -193 -459 -420 -29 -125 -33 -361 -5 -344
5 4 9 23 9 43 0 61 27 151 72 242 34 67 60 103 128 170 87 88 154 130 260 166
102 35 361 24 523 -22 9 -3 17 -1 17 5 0 17 -223 120 -305 140 -95 23 -159 29
-240 20z"/>
<path d="M6353 7349 c-55 -27 -129 -109 -171 -186 -35 -66 -65 -143 -55 -143
3 0 41 33 84 74 91 86 181 136 243 136 72 -1 193 -62 289 -147 66 -59 68 -43
8 60 -47 82 -133 171 -193 201 -66 33 -145 35 -205 5z"/>
<path d="M1314 7286 c-122 -59 -202 -115 -224 -157 -6 -11 -4 -68 5 -156 19
-180 17 -187 -90 -333 -102 -139 -109 -156 -113 -297 -4 -109 -1 -132 23 -215
14 -51 42 -122 62 -158 36 -66 121 -175 130 -166 3 3 -7 30 -21 62 -60 130
-75 252 -51 393 16 88 17 112 6 184 l-12 83 62 128 c62 127 63 128 72 244 13
171 20 187 136 285 121 103 180 167 154 167 -5 0 -67 -29 -139 -64z"/>
<path d="M7409 7246 c-51 -28 -104 -83 -142 -147 -29 -49 -80 -179 -74 -186 3
-2 18 20 34 49 89 157 245 228 370 167 84 -40 223 -205 322 -382 18 -32 35
-56 37 -54 8 8 -94 247 -138 325 -50 89 -144 190 -207 222 -67 34 -145 36
-202 6z"/>
<path d="M5845 7209 c-16 -3 -48 -7 -71 -8 -22 0 -43 -3 -46 -6 -3 -3 30 -115
74 -248 137 -420 293 -989 329 -1200 l12 -72 -33 -59 -33 -58 53 -102 c45 -87
53 -113 57 -172 5 -65 0 -88 -32 -169 -8 -19 -8 -20 12 -2 26 22 58 95 79 179
36 140 2 455 -96 900 -80 359 -249 1003 -268 1019 -4 3 -20 2 -37 -2z"/>
<path d="M4761 7154 c-181 -49 -307 -188 -361 -400 -18 -68 -45 -323 -36 -332
2 -2 14 30 26 70 48 160 130 301 234 401 74 72 188 129 305 153 133 26 345 12
495 -33 11 -3 16 -1 12 5 -12 19 -269 114 -360 133 -107 22 -240 23 -315 3z"/>
<path d="M2058 7031 c-68 -10 -74 -19 -54 -82 22 -66 44 -99 66 -99 22 0 108
94 116 127 12 46 -38 67 -128 54z"/>
<path d="M6444 7021 c-97 -24 -175 -113 -243 -280 l-31 -73 90 86 c50 47 111
98 137 113 64 37 132 37 193 1 60 -35 157 -136 219 -227 28 -41 51 -69 51 -62
0 16 -68 197 -92 245 -29 56 -115 144 -168 171 -53 27 -113 36 -156 26z"/>
<path d="M2214 6908 c-25 -35 -53 -77 -61 -95 -15 -30 -15 -33 10 -75 14 -23
36 -53 50 -66 l25 -23 25 33 c28 38 83 144 102 199 16 43 7 62 -38 79 -52 19
-65 12 -113 -52z"/>
<path d="M4996 6854 c-192 -47 -360 -213 -410 -409 -21 -82 -28 -197 -18 -275
l8 -65 13 60 c19 91 48 174 81 232 69 121 211 236 350 284 190 65 442 19 659
-121 51 -34 96 -59 98 -56 9 9 -161 178 -222 221 -80 57 -188 110 -262 129
-75 20 -217 19 -297 0z"/>
<path d="M2370 6728 l-62 -133 18 -34 c10 -18 35 -52 55 -75 31 -34 40 -39 55
-30 10 6 44 71 75 145 l57 134 -61 63 c-34 34 -64 62 -68 62 -3 0 -34 -60 -69
-132z"/>
<path d="M7475 6748 c-64 -35 -143 -136 -190 -243 l-27 -59 68 72 c95 103 148
125 245 102 43 -11 64 -24 119 -79 75 -74 169 -211 238 -346 25 -49 47 -85 49
-78 10 29 -118 354 -177 446 -47 75 -135 162 -185 182 -40 18 -112 19 -140 3z"/>
<path d="M2611 6662 c-21 -39 -91 -225 -97 -258 -7 -39 15 -89 56 -129 l28
-27 16 24 c19 29 66 142 96 232 l22 68 -55 56 c-52 52 -55 54 -66 34z"/>
<path d="M6453 6673 c-67 -14 -180 -166 -199 -268 l-7 -40 59 60 c73 74 134
105 207 105 46 0 61 -5 99 -34 87 -66 206 -257 260 -414 31 -93 35 -51 8 85
-37 181 -90 297 -180 396 -75 82 -173 126 -247 110z"/>
<path d="M5194 6510 c-141 -19 -295 -116 -359 -224 -80 -137 -90 -309 -32
-536 l22 -85 7 141 c8 174 20 241 57 321 72 153 221 233 437 233 204 0 388
-82 575 -258 44 -41 82 -73 84 -70 5 5 -93 152 -145 217 -73 90 -238 204 -345
239 -71 23 -215 33 -301 22z"/>
<path d="M2788 6468 c-24 -38 -108 -194 -108 -202 0 -4 26 13 58 37 31 24 76
56 100 72 23 15 42 33 42 40 0 11 -64 75 -74 75 -2 0 -10 -10 -18 -22z"/>
<path d="M2885 6353 c-281 -196 -481 -427 -539 -622 -21 -70 -21 -203 0 -263
35 -105 130 -169 250 -169 116 0 206 70 240 189 51 176 -112 335 -231 225
l-29 -27 36 -9 c69 -16 86 -69 38 -117 -43 -43 -124 -10 -161 66 -18 38 -21
58 -17 118 6 92 46 182 126 280 65 81 275 295 342 349 68 55 35 43 -55 -20z"/>
<path d="M6445 6331 c-48 -21 -110 -88 -136 -145 -29 -63 -24 -67 38 -30 130
78 261 27 342 -134 57 -114 106 -276 142 -467 l19 -100 -5 125 c-7 222 -62
514 -115 621 -63 126 -178 179 -285 130z"/>
<path d="M7485 6204 c-71 -37 -142 -132 -195 -263 -38 -96 -35 -122 7 -60 101
146 257 221 366 175 90 -37 188 -240 250 -516 13 -60 15 -62 16 -25 1 56 -25
212 -55 325 -48 182 -126 304 -226 354 -59 30 -119 33 -163 10z"/>
<path d="M4194 6133 c-26 -119 -77 -210 -172 -306 -138 -140 -322 -240 -482
-262 -25 -3 -58 -9 -75 -12 l-29 -5 23 -19 c58 -47 205 -63 315 -34 160 42
328 170 391 299 46 94 68 201 60 289 -8 73 -21 94 -31 50z"/>
<path d="M4980 6032 c39 -74 145 -214 207 -275 27 -26 98 -87 158 -135 139
-112 162 -150 176 -301 17 -179 40 -223 220 -420 149 -162 214 -243 244 -302
23 -44 25 -60 25 -182 0 -208 -14 -254 -145 -477 -66 -113 -72 -133 -86 -270
-33 -349 -31 -344 -175 -500 -116 -127 -177 -207 -275 -364 -201 -321 -420
-447 -850 -486 -164 -16 -612 -8 -964 15 -182 12 -339 16 -580 13 -319 -4
-333 -6 -430 -31 -55 -15 -125 -37 -155 -48 -98 -39 -263 -128 -335 -182 -98
-72 -246 -217 -320 -312 -60 -77 -155 -217 -155 -229 0 -4 40 40 89 96 133
154 253 251 409 332 264 136 498 181 806 156 156 -12 258 -26 756 -105 621
-98 810 -115 1047 -97 224 18 375 59 588 162 290 140 485 331 670 660 147 262
251 572 301 895 26 164 26 490 0 667 -9 70 -15 132 -11 138 10 15 56 37 95 45
27 5 46 0 83 -19 26 -14 52 -26 58 -26 12 0 -20 62 -60 117 -32 45 -155 124
-223 145 -34 10 -39 17 -63 82 -56 151 -205 409 -336 583 -103 135 -114 157
-99 194 26 62 118 87 197 54 20 -8 38 -13 41 -10 11 10 -83 97 -131 121 -54
28 -162 44 -296 44 l-83 0 -92 74 c-109 88 -314 236 -327 236 -6 0 4 -26 21
-58z"/>
<path d="M6425 5968 c-31 -16 -115 -101 -115 -115 0 -9 9 -8 37 3 181 76 344
-214 413 -736 12 -91 24 -185 28 -210 3 -25 7 -37 10 -27 5 25 -16 403 -28
509 -40 325 -120 512 -245 569 -46 21 -72 23 -100 7z"/>
<path d="M7485 5646 c-30 -14 -73 -47 -107 -85 -59 -63 -182 -241 -173 -249 3
-3 37 29 77 70 84 87 138 118 202 118 36 0 52 -6 79 -30 121 -106 203 -445
223 -919 10 -240 20 -253 28 -38 8 192 2 445 -15 642 -23 258 -98 454 -192
498 -46 22 -62 21 -122 -7z"/>
<path d="M4093 5582 c-184 -172 -389 -230 -589 -166 -32 10 60 -70 115 -100
67 -36 131 -42 304 -27 127 12 140 11 175 -6 45 -22 98 -90 113 -146 28 -103
-1 -183 -153 -430 -104 -169 -125 -217 -149 -330 -19 -94 -28 -340 -10 -322 4
6 27 66 50 135 73 215 181 411 297 540 72 80 108 128 140 190 l29 55 0 210
c-1 305 -17 347 -164 424 -43 22 -81 41 -83 41 -1 -1 -35 -31 -75 -68z"/>
<path d="M2666 5211 c34 -36 342 -149 483 -177 115 -23 297 -15 396 16 103 33
215 113 191 137 -3 3 -43 -2 -88 -12 -108 -23 -429 -32 -582 -15 -99 10 -301
40 -381 56 -22 5 -27 3 -19 -5z"/>
<path d="M4476 5172 c-4 -7 -10 -53 -13 -103 -5 -71 -3 -93 7 -99 25 -15 30 0
29 88 0 91 -10 135 -23 114z"/>
<path d="M3813 5104 c-51 -52 -129 -99 -205 -123 -21 -7 -38 -16 -38 -20 0 -5
14 -26 31 -47 18 -22 43 -63 56 -93 24 -53 24 -53 61 -47 58 9 111 53 151 125
30 56 35 76 39 148 4 83 -5 115 -32 111 -6 0 -34 -25 -63 -54z"/>
<path d="M4550 5133 c1 -48 19 -160 31 -187 15 -31 84 -81 100 -71 13 9 7 69
-18 178 -13 58 -20 71 -46 88 -46 28 -67 25 -67 -8z"/>
<path d="M7318 5110 c-20 -11 -52 -39 -71 -62 -42 -52 -136 -221 -178 -319
-33 -76 -33 -106 -1 -42 27 52 126 190 170 236 69 72 113 83 155 39 52 -54
107 -273 138 -552 14 -126 17 -1045 4 -1284 -4 -72 -5 -129 -2 -126 8 7 62
450 82 660 35 374 28 922 -14 1125 -33 160 -91 276 -160 322 -41 28 -74 28
-123 3z"/>
<path d="M4724 5078 c3 -13 10 -59 16 -103 15 -107 25 -130 78 -171 51 -39 57
-40 66 -18 9 23 -22 214 -38 239 -15 23 -96 75 -115 75 -7 0 -9 -10 -7 -22z"/>
<path d="M4943 4893 c7 -114 23 -163 62 -189 23 -15 28 -15 41 -2 13 13 14 32
7 123 l-8 108 -54 30 -54 31 6 -101z"/>
<path d="M5120 4747 c0 -117 2 -128 23 -153 13 -15 29 -24 35 -21 15 10 32 97
32 166 0 63 -12 84 -62 116 l-28 17 0 -125z"/>
<path d="M3831 4760 c-55 -44 -89 -60 -125 -60 -21 0 -24 -10 -50 -132 -36
-176 -35 -163 -6 -160 89 9 203 129 241 254 21 68 22 129 3 135 -6 2 -34 -15
-63 -37z"/>
<path d="M5295 4698 c-25 -68 -65 -195 -65 -208 0 -9 13 -31 29 -50 29 -35 30
-35 49 -15 19 20 72 147 72 174 0 13 -67 111 -76 111 -3 0 -7 -6 -9 -12z"/>
<path d="M5397 4429 c-22 -41 -37 -85 -37 -106 0 -37 24 -93 40 -93 14 0 72
84 87 124 10 29 8 41 -14 90 -14 31 -29 56 -33 56 -4 0 -23 -32 -43 -71z"/>
<path d="M3715 4350 c-38 -22 -86 -43 -107 -46 -23 -4 -48 -19 -71 -43 -37
-38 -177 -238 -177 -253 0 -14 93 -9 151 8 75 22 140 65 205 138 59 65 114
167 114 210 0 37 -30 34 -115 -14z"/>
<path d="M5483 4227 c-58 -59 -69 -87 -54 -143 19 -70 26 -73 65 -35 19 18 44
55 55 80 17 40 18 54 9 92 -6 24 -14 47 -17 51 -4 5 -30 -16 -58 -45z"/>
<path d="M3731 4066 c-89 -75 -155 -112 -232 -133 -59 -15 -74 -15 -138 -3
l-73 14 -74 -37 c-57 -28 -87 -37 -127 -37 -90 0 -121 -15 -179 -82 -99 -115
-90 -109 -164 -106 l-67 3 -52 -58 c-67 -73 -112 -158 -130 -244 -15 -69 -18
-233 -6 -288 6 -27 9 -22 30 50 30 104 63 174 100 209 31 30 45 32 132 21 l57
-8 66 62 c64 59 67 61 120 61 47 0 60 5 89 29 18 17 51 36 73 44 21 8 47 18
56 22 36 15 -4 -59 -64 -116 l-58 -57 0 -120 c0 -67 5 -145 11 -174 13 -61 57
-162 86 -197 l19 -23 0 123 c-1 181 25 239 109 239 35 0 80 43 100 97 23 61
39 80 84 94 52 17 70 36 86 96 8 29 22 77 30 107 11 40 32 74 84 136 86 102
98 126 107 221 10 114 2 120 -75 55z"/>
<path d="M5528 3997 c-60 -62 -71 -94 -48 -138 16 -28 46 -23 87 15 37 33 37
35 35 102 -1 37 -5 71 -9 74 -5 4 -34 -20 -65 -53z"/>
<path d="M3116 3999 c-23 -27 -36 -79 -20 -79 10 0 127 60 149 76 17 13 18 16
5 24 -8 5 -36 10 -62 10 -39 0 -50 -4 -72 -31z"/>
<path d="M2797 3859 c-38 -22 -66 -129 -34 -129 14 0 65 58 86 99 11 19 11 25
0 32 -18 11 -30 11 -52 -2z"/>
<path d="M5560 3801 c-48 -26 -72 -55 -68 -83 5 -34 47 -36 87 -3 25 22 31 34
31 66 0 44 -2 45 -50 20z"/>
<path d="M5565 3653 c-44 -23 -65 -44 -65 -64 0 -25 41 -34 77 -17 23 11 29
20 31 56 3 46 0 48 -43 25z"/>
<path d="M4789 3633 c-48 -7 -133 -66 -165 -115 -91 -136 -48 -362 86 -449 78
-50 147 -76 269 -99 173 -34 199 -41 227 -63 25 -20 26 -23 21 -91 l-6 -71 36
55 c54 84 85 157 78 180 -9 28 -37 38 -194 66 -223 41 -297 79 -342 172 -46
94 -28 176 51 230 32 22 34 22 64 4 19 -11 35 -31 41 -50 11 -38 22 -37 53 8
39 58 25 131 -38 183 -47 40 -103 52 -181 40z"/>
<path d="M5534 3502 c-11 -7 -49 -320 -40 -329 5 -5 90 251 101 305 6 30 5 32
-22 32 -15 0 -33 -4 -39 -8z"/>
<path d="M1765 3339 c-86 -17 -207 -82 -272 -147 -73 -71 -115 -143 -142 -242
-25 -89 -26 -111 -6 -226 18 -101 59 -197 112 -262 42 -52 149 -124 235 -159
66 -26 209 -59 304 -69 58 -6 64 -5 170 47 60 30 125 60 144 67 l35 14 -93 18
c-111 22 -237 62 -302 95 -118 60 -213 188 -226 305 -8 72 17 173 54 220 61
76 173 103 230 55 57 -48 50 -117 -16 -161 l-32 -22 30 -7 c40 -9 86 2 137 31
31 18 49 38 69 79 23 49 26 64 21 121 -7 87 -43 147 -117 192 -30 18 -71 37
-90 42 -53 16 -188 20 -245 9z"/>
<path d="M832 3005 c-137 -42 -215 -171 -215 -351 0 -71 4 -91 32 -150 63
-135 153 -224 301 -299 164 -83 454 -144 765 -161 l120 -6 78 57 c43 31 76 59
74 61 -2 2 -60 11 -128 19 -312 38 -507 88 -684 174 -147 72 -229 142 -274
233 -49 96 -42 171 19 242 57 65 125 65 192 -1 l38 -37 0 30 c0 84 -59 174
-126 193 -52 15 -139 13 -192 -4z"/>
<path d="M4449 2983 c-62 -52 -76 -137 -36 -214 45 -86 101 -103 367 -115 85
-4 163 -11 173 -16 24 -12 22 -27 -12 -92 -17 -31 -25 -56 -19 -56 15 0 105
56 156 97 79 64 92 132 30 152 -18 6 -113 15 -210 21 -185 10 -250 20 -299 45
-51 27 -64 78 -28 110 17 16 25 17 50 8 38 -15 39 4 2 39 -62 57 -122 64 -174
21z"/>
<path d="M601 2018 c-180 -17 -311 -77 -433 -198 -122 -121 -177 -259 -165
-415 18 -235 145 -356 377 -358 118 -2 162 17 244 103 67 70 96 130 103 211 6
62 -1 76 -17 34 -23 -60 -141 -87 -200 -45 -34 24 -70 95 -70 136 1 79 83 175
195 229 164 79 382 114 758 122 l268 6 45 54 c24 30 44 58 44 62 0 9 -112 24
-375 51 -205 21 -594 25 -774 8z"/>
<path d="M3895 1886 c-167 -47 -308 -118 -363 -180 -61 -70 -68 -172 -17 -245
81 -118 257 -98 289 32 l7 28 -38 -25 c-49 -34 -78 -33 -114 3 -33 33 -38 75
-14 121 40 77 222 132 650 197 l190 28 -95 8 c-79 7 -207 24 -385 51 -16 3
-66 -6 -110 -18z"/>
<path d="M1835 1749 c-76 -73 -102 -106 -130 -163 -82 -168 -46 -329 94 -413
146 -87 296 -59 366 69 48 88 30 215 -36 256 -29 18 -39 7 -39 -44 0 -56 -12
-79 -52 -100 -37 -19 -96 -14 -134 11 -87 57 -86 173 5 373 22 51 41 94 41 97
0 17 -30 -6 -115 -86z"/>
<path d="M1455 1714 c-341 -121 -584 -363 -702 -699 -27 -78 -27 -86 -28 -290
0 -195 2 -215 24 -280 69 -205 195 -330 411 -410 68 -26 88 -28 205 -29 117 0
138 3 209 27 232 81 356 246 356 472 0 181 -90 334 -242 410 -96 48 -102 46
-73 -17 29 -63 33 -143 9 -194 -24 -50 -96 -110 -149 -123 -60 -15 -139 -14
-179 3 -133 56 -198 227 -175 465 25 267 123 450 327 610 45 36 82 68 82 73 0
10 8 12 -75 -18z"/>
</g>
</svg>
