<?xml version="1.0" standalone="no"?>
<!DOCTYPE svg PUBLIC "-//W3C//DTD SVG 20010904//EN"
 "http://www.w3.org/TR/2001/REC-SVG-20010904/DTD/svg10.dtd">
<svg version="1.0" xmlns="http://www.w3.org/2000/svg"
 width="1057.000000pt" height="1280.000000pt" viewBox="0 0 1057.000000 1280.000000"
 preserveAspectRatio="xMidYMid meet">
<metadata>
Created by potrace 1.15, written by Peter Selinger 2001-2017
</metadata>
<g transform="translate(0.000000,1280.000000) scale(0.100000,-0.100000)"
fill="#000000" stroke="none">
<path d="M4680 12792 c0 -7 3 -12 8 -12 14 0 419 -71 547 -96 422 -82 757
-190 1015 -326 139 -73 284 -168 273 -179 -4 -4 -48 -31 -98 -59 -49 -28 -93
-55 -98 -59 -7 -7 381 -251 400 -251 5 0 56 18 114 39 643 243 1112 172 1681
-251 58 -44 110 -78 114 -77 30 13 -68 322 -175 553 l-41 88 -37 -5 c-21 -3
-97 -11 -170 -18 -274 -27 -560 28 -835 159 -56 28 -152 82 -212 122 -96 63
-130 79 -270 126 -386 128 -761 198 -1256 235 -219 16 -960 24 -960 11z"/>
<path d="M5786 12145 c-137 -141 -245 -259 -242 -263 4 -4 149 -34 323 -67
l316 -60 229 21 c126 13 232 25 235 27 5 6 -26 26 -254 167 -84 51 -153 96
-153 99 0 3 37 26 81 51 44 25 84 50 90 56 6 8 -49 44 -179 118 -104 58 -190
106 -193 106 -2 0 -116 -115 -253 -255z"/>
<path d="M5303 11823 c-33 -4 -44 -20 -20 -27 6 -3 69 -20 138 -39 428 -120
719 -296 810 -492 30 -62 31 -71 26 -153 -3 -48 -9 -98 -13 -111 -6 -19 -4
-23 7 -18 8 3 64 28 124 55 405 183 729 222 1105 134 67 -16 140 -26 175 -26
145 4 313 76 432 188 82 76 177 185 169 193 -3 3 -47 -13 -98 -35 -145 -61
-213 -76 -363 -76 -158 -1 -220 14 -360 84 -108 54 -193 122 -283 225 -31 36
-59 65 -62 65 -3 0 -20 -20 -38 -45 -70 -99 -178 -141 -362 -139 -153 2 -230
15 -591 104 -156 39 -336 80 -399 91 -111 20 -330 32 -397 22z"/>
<path d="M5305 11660 c-117 -122 -389 -248 -695 -322 -69 -16 -129 -34 -135
-39 -18 -18 322 -6 585 21 287 30 788 123 805 150 3 5 -11 12 -32 15 -141 24
-305 88 -449 174 l-51 31 -28 -30z"/>
<path d="M4915 11003 c-210 -18 -456 -58 -675 -109 -163 -38 -370 -96 -370
-104 0 -4 73 -11 163 -14 412 -18 608 -74 811 -236 l72 -57 54 35 c323 207
631 304 1018 319 84 3 155 10 158 14 2 4 -12 13 -33 18 -261 70 -484 112 -690
130 -111 10 -412 12 -508 4z"/>
<path d="M4420 10431 c-108 -24 -165 -41 -265 -81 -285 -113 -627 -370 -806
-605 -58 -76 -92 -132 -87 -145 2 -5 50 22 108 61 140 94 343 194 450 220 121
31 242 24 334 -19 71 -33 160 -110 208 -180 17 -24 33 -40 37 -35 5 4 25 49
46 98 58 137 112 242 172 332 56 84 183 222 263 285 25 20 42 39 39 43 -39 40
-359 57 -499 26z"/>
<path d="M5160 10170 c-91 -4 -177 -8 -192 -9 -16 0 -28 -5 -28 -10 0 -5 48
-12 108 -15 677 -43 1333 -192 1852 -421 258 -113 472 -249 624 -396 l102 -98
100 16 c129 21 535 24 644 5 251 -45 452 -130 646 -276 84 -62 252 -223 347
-331 39 -44 74 -81 79 -83 21 -9 1 25 -75 126 -210 280 -453 511 -747 711
-156 107 -248 160 -430 251 -583 291 -1290 465 -2115 520 -215 14 -712 20
-915 10z"/>
<path d="M5150 10022 c0 -5 78 -32 173 -61 500 -152 835 -326 801 -414 -20
-53 -201 -56 -385 -7 -41 11 -81 20 -89 20 -10 0 -31 -35 -59 -94 -89 -194
-233 -303 -466 -351 -101 -21 -361 -45 -482 -45 -55 0 -93 -4 -93 -10 0 -5 2
-10 5 -10 48 0 223 -27 299 -46 240 -60 377 -144 639 -393 148 -140 207 -184
126 -93 -86 97 -115 210 -81 318 92 293 512 486 966 445 493 -45 935 -265
1440 -715 37 -32 69 -56 72 -53 4 3 -22 52 -56 109 -320 523 -694 851 -1190
1043 -305 118 -610 191 -1293 310 -359 62 -327 58 -327 47z"/>
<path d="M4260 9552 c-41 -25 -145 -88 -230 -140 -190 -117 -428 -274 -535
-355 -282 -213 -519 -457 -682 -703 -64 -96 -72 -100 -207 -92 -132 9 -196 46
-236 140 -30 71 -28 206 5 353 14 60 25 111 25 112 0 22 -79 -66 -194 -214
-425 -551 -826 -1344 -1111 -2198 -112 -335 -231 -765 -211 -765 3 0 54 95
112 212 562 1124 1022 1753 1617 2212 48 37 87 65 87 63 0 -3 -18 -38 -39 -79
-76 -139 -231 -520 -231 -565 0 -9 120 104 268 253 349 352 557 525 796 662
185 106 351 160 521 169 168 9 270 -12 428 -84 72 -34 79 -40 111 -97 68 -121
162 -185 270 -186 140 0 257 123 227 238 -30 107 -163 182 -379 213 l-84 12
-55 66 c-63 76 -143 234 -170 336 -15 57 -18 108 -18 278 0 114 -2 207 -5 206
-3 0 -39 -21 -80 -47z"/>
<path d="M7800 9133 c0 -5 25 -39 55 -77 168 -211 319 -482 465 -839 26 -64
37 -78 58 -83 179 -41 425 -114 572 -169 434 -163 743 -354 991 -613 164 -171
268 -337 334 -534 111 -333 75 -679 -99 -937 -73 -108 -22 -76 79 50 150 186
247 390 292 615 26 132 24 394 -5 531 -76 357 -264 689 -547 967 -331 325
-732 541 -1239 667 -253 62 -351 103 -616 254 -166 94 -319 175 -332 175 -4 0
-8 -3 -8 -7z"/>
<path d="M4900 8815 c0 -3 47 -52 103 -108 85 -84 111 -116 143 -181 34 -70
39 -88 42 -170 7 -155 -43 -270 -181 -413 -162 -169 -373 -301 -697 -438 -227
-95 -575 -204 -848 -266 -139 -31 -137 -37 23 -61 57 -8 181 -13 335 -12 222
1 258 3 380 27 259 50 404 104 775 287 143 71 296 141 340 156 105 35 226 43
315 20 161 -42 338 -182 520 -413 34 -43 67 -82 72 -88 17 -17 0 118 -32 250
-141 590 -488 1040 -998 1295 -97 49 -292 125 -292 115z"/>
<path d="M4095 8194 c-496 -51 -913 -208 -1402 -530 -387 -255 -824 -668
-1126 -1062 -137 -179 -298 -434 -283 -449 3 -3 45 36 93 88 559 598 1135 927
1723 984 l66 6 24 47 c194 368 530 586 1060 691 185 36 521 71 693 71 37 0 67
4 67 9 0 21 -243 93 -415 122 -115 20 -403 33 -500 23z"/>
<path d="M8230 7964 c0 -3 33 -45 73 -92 569 -675 772 -1311 651 -2037 -29
-171 -95 -428 -159 -614 -14 -41 -23 -77 -20 -79 7 -7 7 -8 70 108 171 311
345 483 505 497 230 21 417 -314 437 -779 3 -82 10 -148 15 -148 4 0 8 2 8 4
0 3 13 56 29 119 178 690 -32 1441 -609 2172 -120 152 -459 495 -606 612 -117
95 -245 183 -314 218 -47 24 -80 32 -80 19z"/>
<path d="M6110 7919 c0 -6 25 -72 56 -147 160 -393 184 -471 184 -587 0 -40
-6 -92 -14 -118 l-14 -45 75 -83 c506 -555 739 -1147 769 -1951 4 -98 10 -178
14 -178 8 0 38 103 60 205 57 256 53 654 -10 961 -130 635 -502 1308 -1036
1877 -73 77 -84 86 -84 66z"/>
<path d="M2898 7029 c51 -80 197 -251 287 -336 288 -270 613 -419 1045 -479
58 -8 198 -17 311 -21 l206 -6 -71 -48 c-82 -55 -195 -168 -253 -254 -58 -86
-120 -215 -202 -417 -95 -236 -94 -247 8 -113 184 245 482 501 716 617 183 90
303 122 460 121 103 0 131 -4 195 -26 132 -47 254 -148 323 -269 12 -21 25
-38 30 -38 12 0 8 93 -8 155 -59 229 -228 377 -513 447 -81 20 -116 21 -472
23 -432 1 -510 10 -735 81 -207 65 -357 170 -411 289 -24 51 -26 66 -22 147
l4 90 -40 -6 c-23 -3 -126 -9 -231 -12 -218 -8 -344 6 -517 56 -131 38 -135
38 -110 -1z"/>
<path d="M5930 6906 c0 -2 28 -24 63 -49 101 -72 199 -183 246 -278 94 -191
95 -372 5 -811 -75 -368 -85 -550 -40 -766 49 -240 114 -335 400 -585 164
-143 263 -243 325 -326 88 -118 156 -285 182 -446 23 -147 9 -466 -27 -610 -4
-16 -2 -25 6 -25 17 0 113 210 153 335 50 159 62 239 61 410 -2 298 -75 518
-330 982 -205 375 -296 586 -341 790 -24 108 -24 394 0 512 22 106 22 286 1
389 -48 235 -208 403 -442 463 -66 17 -262 28 -262 15z"/>
<path d="M4285 5108 c-211 -167 -312 -360 -346 -654 -19 -170 5 -409 66 -658
14 -55 23 -101 21 -103 -2 -2 -36 15 -77 38 -283 160 -480 395 -588 703 -34
96 -76 289 -87 399 -7 72 -20 87 -29 35 -3 -18 -10 -55 -16 -83 -5 -27 -13
-144 -16 -260 -4 -169 -2 -233 12 -325 32 -216 90 -398 185 -585 125 -244 270
-427 482 -610 405 -348 936 -539 1381 -497 67 6 158 21 202 32 93 25 227 80
232 96 2 7 -17 14 -49 18 -165 21 -377 95 -533 187 -222 131 -433 336 -587
574 -339 522 -437 1176 -243 1618 20 45 39 88 42 95 9 21 -11 13 -52 -20z"/>
<path d="M9760 4738 c-195 -332 -466 -629 -733 -802 -245 -160 -486 -225 -679
-182 -77 17 -169 64 -220 113 -47 45 -42 17 8 -49 117 -153 245 -247 404 -295
20 -6 -142 -99 -335 -194 -176 -86 -321 -138 -464 -167 l-94 -19 -32 -89 c-80
-221 -203 -368 -406 -488 -46 -27 -86 -51 -88 -53 -25 -19 132 -2 339 38 965
188 1667 683 2069 1460 113 218 190 419 262 681 33 123 32 118 20 118 -5 0
-28 -33 -51 -72z"/>
<path d="M6367 4204 c97 -96 126 -145 144 -239 13 -69 1 -151 -36 -250 -33
-87 -63 -145 -204 -399 -253 -452 -330 -639 -421 -1026 -146 -616 -400 -1111
-762 -1486 -189 -195 -379 -338 -604 -455 -134 -70 -138 -80 -17 -55 273 58
707 237 1003 413 210 126 460 306 445 321 -3 3 -52 16 -108 29 -144 32 -211
60 -264 108 l-46 41 29 33 30 33 120 -55 c153 -70 256 -107 298 -107 59 0 269
163 436 337 94 98 210 254 210 281 0 10 -11 11 -47 6 -84 -13 -274 -8 -336 9
-113 30 -182 89 -233 196 -38 79 -41 113 -14 151 l23 32 17 -55 c20 -63 74
-142 122 -179 174 -132 386 -102 560 80 132 138 211 277 283 497 51 155 105
405 88 405 -4 0 -29 -44 -54 -97 -89 -187 -210 -337 -313 -388 -57 -28 -95
-31 -135 -11 -71 37 -95 130 -88 330 8 219 58 457 130 621 158 357 176 614 54
783 -63 88 -202 160 -346 178 l-55 7 91 -89z"/>
<path d="M5138 2369 c-70 -8 -84 -14 -160 -65 -155 -104 -306 -166 -491 -201
-117 -22 -522 -22 -732 0 -77 8 -142 13 -144 11 -11 -10 22 -25 129 -57 265
-81 508 -113 785 -104 294 9 564 67 865 186 91 37 290 134 290 142 0 15 -215
78 -300 88 -95 12 -132 12 -242 0z"/>
<path d="M5250 1257 c-509 -485 -1087 -712 -1833 -721 l-199 -2 -80 -172 -81
-172 -79 0 c-94 0 -93 -16 -7 166 33 70 57 129 55 132 -3 2 -67 -16 -143 -41
-227 -75 -360 -90 -543 -61 l-35 5 -73 -115 c-41 -64 -77 -118 -81 -120 -5 -3
-94 29 -109 40 -2 1 24 43 57 93 34 50 61 95 61 100 0 6 -19 4 -47 -4 -104
-30 -201 -38 -385 -32 -248 8 -438 48 -545 115 -85 53 -75 103 30 155 32 16
57 32 57 36 0 5 -28 12 -63 15 -186 21 -385 79 -562 166 -195 95 -329 193
-521 383 -61 60 -114 105 -117 100 -8 -13 39 -110 107 -221 196 -317 471 -557
851 -742 466 -228 999 -340 1695 -357 486 -11 1007 35 1558 139 161 30 204 48
115 48 -102 0 -253 41 -253 69 0 5 64 44 143 86 361 196 503 283 658 401 115
89 266 242 338 344 59 84 145 247 133 253 -4 3 -50 -36 -102 -86z"/>
</g>
</svg>

