<?xml version="1.0" standalone="no"?>
<!DOCTYPE svg PUBLIC "-//W3C//DTD SVG 20010904//EN"
 "http://www.w3.org/TR/2001/REC-SVG-20010904/DTD/svg10.dtd">
<svg version="1.0" xmlns="http://www.w3.org/2000/svg"
 width="1280.000000pt" height="1280.000000pt" viewBox="0 0 1280.000000 1280.000000"
 preserveAspectRatio="xMidYMid meet">
<metadata>
Created by potrace 1.15, written by Peter Selinger 2001-2017
</metadata>
<g transform="translate(0.000000,1280.000000) scale(0.100000,-0.100000)"
fill="#000000" stroke="none">
<path d="M6612 12777 c-19 -22 53 -156 137 -254 82 -95 229 -229 348 -315 46
-34 80 -64 76 -69 -4 -4 -109 -46 -233 -94 -478 -184 -786 -368 -1020 -611
-324 -336 -360 -678 -107 -1012 50 -66 111 -122 317 -293 140 -116 257 -213
259 -215 10 -9 -40 -49 -166 -136 -148 -100 -209 -156 -250 -226 -15 -26 -40
-64 -55 -86 -28 -39 -29 -56 -3 -56 14 0 93 27 355 120 205 73 308 93 445 87
126 -5 189 -24 283 -87 153 -103 240 -227 250 -359 l4 -67 -40 -32 c-39 -32
-41 -32 -94 -21 -54 11 -140 52 -159 75 -8 10 6 34 56 98 84 108 83 122 -5
118 -154 -6 -338 -60 -540 -158 -177 -86 -314 -178 -429 -289 -219 -211 -311
-436 -298 -730 10 -210 58 -385 177 -632 149 -310 256 -469 771 -1143 228
-298 284 -390 330 -540 19 -59 23 -97 23 -180 0 -60 -6 -114 -12 -127 -7 -12
-42 -36 -78 -54 -54 -27 -78 -33 -133 -33 -70 0 -121 13 -159 42 -34 26 -45
131 -32 291 7 75 7 128 2 133 -6 6 -36 -3 -77 -21 -285 -129 -519 -474 -602
-886 -25 -125 -25 -378 0 -495 53 -244 170 -462 422 -780 320 -406 409 -533
498 -713 106 -212 146 -369 154 -599 7 -187 -5 -300 -53 -487 -18 -74 -31
-138 -28 -143 20 -33 78 21 126 117 47 94 125 381 147 540 16 109 13 335 -4
440 -38 233 -89 369 -302 797 -192 384 -233 479 -269 617 -27 105 -33 268 -13
363 35 162 150 290 276 305 48 5 51 4 81 -33 36 -44 58 -103 67 -186 4 -33 12
-58 20 -62 7 -2 31 8 52 23 178 129 410 562 469 876 24 130 15 319 -20 438
-65 217 -167 366 -490 713 -301 323 -416 502 -467 724 -16 68 -26 180 -17 180
4 0 8 -8 8 -18 0 -34 109 -237 174 -322 104 -138 247 -265 373 -328 169 -86
368 -79 519 20 135 89 233 237 255 389 34 235 -110 525 -333 669 -115 75 -123
50 -48 -132 82 -198 85 -270 18 -379 -36 -58 -46 -65 -118 -74 -188 -23 -389
102 -489 307 -61 124 -83 219 -83 363 0 270 115 498 296 585 158 75 324 66
743 -40 151 -39 286 -70 299 -70 38 0 30 35 -27 125 -66 102 -109 192 -109
228 0 24 7 31 47 49 54 24 110 21 217 -13 37 -11 79 -19 94 -17 23 3 27 7 25
32 -3 40 -65 167 -117 240 -88 123 -252 259 -460 383 -61 37 -240 133 -398
214 -520 268 -671 363 -837 530 -111 112 -181 224 -216 344 -25 84 -17 203 17
270 72 140 267 241 511 264 155 15 342 -11 438 -60 65 -33 64 -103 -2 -277
-21 -56 -39 -113 -39 -127 0 -36 61 -99 158 -162 45 -30 97 -73 116 -95 30
-34 34 -45 29 -76 -11 -75 -41 -100 -128 -106 -31 -2 -58 -6 -61 -9 -12 -12 9
-47 51 -86 25 -23 45 -48 45 -57 0 -26 47 -64 78 -64 l30 0 -15 -42 c-15 -43
-11 -54 22 -60 17 -3 16 -6 -12 -23 -45 -27 -44 -59 3 -83 l36 -18 -43 -19
c-53 -24 -91 -54 -83 -66 9 -15 76 -46 117 -53 56 -10 135 16 188 63 49 43 91
101 169 236 60 104 99 149 155 177 106 55 154 127 156 232 l1 61 12 -53 c29
-118 103 -188 271 -258 73 -30 106 -38 178 -42 l88 -5 -3 33 c-3 29 -8 34 -59
54 -146 55 -278 167 -335 283 -25 49 -29 70 -29 138 0 67 5 90 29 142 40 88
44 90 112 59 77 -35 84 -34 84 13 0 150 -125 320 -296 401 -45 22 -74 44 -100
78 -28 37 -32 48 -20 50 25 5 80 -15 207 -74 68 -32 136 -57 165 -60 44 -6
128 9 185 31 22 9 28 -20 18 -86 -10 -64 -1 -78 38 -59 16 8 32 16 37 18 7 4
-13 -36 -65 -123 -11 -19 -15 -36 -9 -44 13 -22 55 0 260 138 224 150 289 182
386 189 66 4 72 3 88 -19 23 -33 20 -85 -9 -147 -26 -57 -32 -106 -14 -117 24
-16 80 8 132 55 82 75 132 196 157 382 6 44 9 86 6 93 -2 7 -69 46 -147 86
-91 47 -161 90 -196 122 -52 48 -55 49 -99 43 -69 -9 -130 -40 -210 -106 -76
-63 -95 -69 -155 -48 -53 17 -87 45 -115 94 l-27 45 26 27 c15 15 32 42 38 60
9 27 8 37 -10 66 -28 45 -72 83 -151 131 l-63 38 -171 2 c-135 1 -190 6 -261
22 -202 47 -389 128 -560 240 -72 48 -138 105 -238 205 l-137 139 -88 -3 c-81
-3 -87 -4 -90 -25 -2 -15 18 -52 58 -109 46 -64 56 -84 40 -79 -33 11 -34 -16
-1 -109 17 -47 28 -86 25 -86 -4 0 -56 46 -118 102 -236 214 -358 282 -551
303 -47 6 -63 4 -73 -8z m1272 -1453 c3 -9 6 -40 6 -69 0 -44 -4 -56 -20 -65
-15 -8 -21 -6 -30 9 -15 29 -12 88 6 116 19 29 29 31 38 9z m279 -133 c57 -70
86 -133 94 -202 7 -59 22 -70 63 -45 l28 16 6 -62 c13 -147 16 -319 6 -313
-16 10 -42 -9 -120 -89 -41 -42 -79 -76 -86 -76 -25 0 -112 98 -208 234 -111
156 -107 132 -51 266 23 53 27 74 23 125 l-5 61 47 17 c34 12 63 33 97 72 26
29 50 54 53 54 3 1 26 -26 53 -58z"/>
<path d="M5204 9370 c-232 -40 -298 -61 -407 -126 -323 -195 -510 -518 -572
-990 -17 -127 -20 -320 -6 -328 16 -10 125 81 192 161 36 43 101 125 144 183
107 144 243 276 326 318 l66 34 6 74 c9 123 56 192 170 251 44 23 65 27 134
28 71 0 85 -3 104 -21 l21 -22 -26 -58 c-62 -135 -153 -219 -400 -369 -171
-104 -284 -192 -341 -264 -111 -141 -269 -432 -358 -661 -129 -328 -193 -698
-168 -970 15 -162 154 -799 179 -818 40 -30 45 -18 84 247 79 540 230 992 431
1290 56 84 161 194 227 237 24 16 47 40 51 54 4 14 7 94 8 178 1 84 6 162 11
173 16 28 63 49 113 49 43 0 45 -1 52 -36 9 -49 -2 -153 -26 -244 -28 -105
-80 -203 -207 -392 -136 -203 -161 -247 -212 -377 -124 -313 -193 -720 -194
-1141 0 -294 25 -490 90 -695 31 -98 130 -301 152 -310 31 -12 35 12 19 112
-30 182 -40 322 -34 492 10 318 67 494 295 909 218 398 215 391 209 437 -4 23
-24 79 -45 126 l-39 85 39 67 39 67 93 0 94 0 25 -34 c116 -152 149 -370 79
-520 -56 -119 -154 -197 -288 -227 -65 -15 -67 -17 -126 -184 -192 -537 -214
-1164 -54 -1588 79 -210 208 -391 360 -503 55 -41 106 -57 106 -33 0 5 -31
106 -70 223 -72 220 -106 346 -137 501 -25 129 -25 424 1 560 55 294 199 574
400 780 157 159 314 260 492 317 87 28 104 36 104 54 0 22 -69 127 -253 382
-332 463 -487 760 -553 1062 -24 114 -30 326 -10 435 65 372 320 709 631 831
75 30 85 37 85 70 0 37 -147 72 -441 104 -107 12 -237 30 -291 41 -53 10 -109
19 -125 18 -15 -1 -127 -18 -249 -39z"/>
<path d="M7125 6920 c-3 -6 -4 -19 0 -29 10 -33 137 -145 251 -222 148 -100
258 -211 311 -314 47 -93 83 -196 109 -315 27 -121 27 -453 0 -595 -38 -204
-123 -425 -224 -580 -60 -90 -202 -232 -270 -269 -46 -24 -60 -27 -100 -21
-94 14 -164 71 -208 171 -41 94 -86 79 -136 -46 -19 -47 -23 -73 -22 -175 0
-202 43 -324 299 -860 282 -590 325 -737 296 -1019 -30 -285 -118 -521 -336
-901 -96 -166 -245 -465 -245 -489 0 -23 16 -20 64 14 103 70 213 207 431 535
152 229 233 371 309 542 129 287 225 639 271 987 8 64 19 264 25 444 9 294 19
443 36 525 9 45 -18 43 -93 -8 -110 -72 -183 -72 -183 1 0 110 64 251 221 489
61 94 129 206 150 250 142 299 163 699 53 1007 -143 401 -479 720 -902 858
-108 35 -99 33 -107 20z"/>
<path d="M6210 3487 c0 -25 60 -97 185 -223 112 -112 130 -135 169 -217 50
-103 69 -171 87 -302 14 -111 7 -334 -16 -465 -54 -306 -183 -596 -328 -739
-48 -47 -58 -52 -84 -47 -17 4 -42 19 -57 34 -26 28 -76 141 -76 173 0 32 -22
33 -47 3 -62 -77 -92 -235 -74 -384 18 -148 60 -290 185 -623 144 -385 175
-493 178 -634 l2 -63 174 0 175 0 -7 188 c-18 556 -19 724 -2 840 9 62 25 140
36 173 32 104 14 112 -84 39 -37 -27 -70 -50 -73 -50 -13 0 7 170 28 230 12
35 62 142 110 236 128 249 167 380 191 641 9 105 9 159 0 258 -44 444 -247
771 -567 916 -70 31 -105 37 -105 16z"/>
</g>
</svg>
