<?xml version="1.0" standalone="no"?>
<!DOCTYPE svg PUBLIC "-//W3C//DTD SVG 20010904//EN"
 "http://www.w3.org/TR/2001/REC-SVG-20010904/DTD/svg10.dtd">
<svg version="1.0" xmlns="http://www.w3.org/2000/svg"
 width="780.000000pt" height="1280.000000pt" viewBox="0 0 780.000000 1280.000000"
 preserveAspectRatio="xMidYMid meet">
<metadata>
Created by potrace 1.15, written by Peter Selinger 2001-2017
</metadata>
<g transform="translate(0.000000,1280.000000) scale(0.100000,-0.100000)"
fill="#000000" stroke="none">
<path d="M3661 12763 c130 -108 248 -246 287 -337 l13 -28 -83 6 c-447 36
-889 32 -1261 -9 -205 -23 -497 -79 -497 -94 0 -3 78 -39 173 -80 94 -41 176
-77 180 -81 5 -5 -11 -11 -35 -15 -175 -27 -251 -42 -383 -75 -824 -209 -1510
-748 -1872 -1471 -106 -213 -183 -481 -183 -639 0 -79 11 -150 23 -150 5 0 61
29 123 65 62 36 115 65 116 65 2 0 4 -62 4 -138 2 -200 28 -354 194 -1177 164
-816 203 -1080 204 -1380 0 -215 -11 -332 -51 -519 -55 -265 -173 -545 -327
-774 l-75 -113 52 43 c92 76 287 270 369 368 235 279 405 619 478 955 110 506
67 1089 -145 1970 -42 172 -52 310 -36 454 59 502 390 837 1121 1134 74 30
144 57 154 61 10 4 17 8 15 10 -17 17 -427 56 -594 56 l-90 1 78 74 c284 271
855 491 1373 530 l89 7 -105 -97 c-490 -455 -848 -930 -1132 -1500 -92 -185
-193 -413 -185 -421 2 -3 26 19 53 49 274 299 622 662 724 755 294 268 593
455 905 565 170 60 163 64 89 -50 -134 -202 -263 -496 -359 -816 -31 -103 -44
-135 -52 -125 -6 7 -70 108 -143 223 -73 116 -134 211 -135 212 -1 2 -56 -78
-124 -176 -126 -185 -416 -595 -604 -853 -59 -82 -105 -148 -103 -148 8 0 326
180 411 232 50 31 135 89 190 128 54 40 104 74 110 76 17 7 83 -112 111 -201
14 -44 35 -147 47 -229 l21 -149 104 109 c219 231 360 406 444 547 23 37 44
64 49 60 4 -4 32 -73 63 -153 122 -314 140 -358 179 -435 45 -91 105 -185 151
-234 38 -41 124 -111 137 -111 5 0 9 42 9 94 0 177 33 324 86 384 l23 27 26
-30 c79 -93 247 -326 307 -427 207 -351 296 -667 314 -1125 4 -95 4 -173 1
-173 -3 0 -35 60 -72 134 -36 73 -101 187 -143 252 -150 229 -286 371 -610
636 -103 84 -225 186 -271 227 l-84 75 -34 -39 c-115 -135 -239 -365 -317
-593 -44 -128 -137 -483 -151 -575 l-7 -44 122 -17 c67 -9 123 -16 124 -14 2
2 8 71 14 153 14 172 47 332 90 435 34 79 133 259 144 260 8 0 156 -161 243
-265 297 -356 381 -555 302 -716 -51 -106 -145 -185 -537 -452 -102 -69 -209
-143 -238 -164 l-54 -38 -24 30 c-57 70 -205 300 -272 420 -127 231 -271 565
-503 1167 -19 49 -37 88 -40 88 -3 0 -71 -64 -150 -142 -597 -590 -888 -1271
-983 -2298 -27 -289 -36 -511 -46 -1105 -10 -652 -18 -953 -26 -1070 l-5 -80
103 205 c229 453 543 905 932 1345 213 240 624 637 811 783 43 33 55 55 37 66
-5 3 -37 40 -71 83 l-63 78 58 -65 c227 -250 353 -373 512 -497 46 -36 81 -67
80 -69 -2 -1 -55 -25 -118 -52 -457 -196 -1028 -510 -1237 -680 -67 -54 -51
-57 40 -9 322 170 691 273 1247 347 85 12 235 32 333 46 l177 24 118 -79 c256
-172 483 -371 600 -526 65 -86 127 -211 142 -287 41 -203 -119 -337 -366 -307
-301 38 -613 305 -785 674 l-32 68 -131 -6 c-276 -11 -533 -101 -791 -275
-515 -348 -858 -940 -926 -1601 -16 -154 -6 -442 20 -596 72 -423 244 -815
528 -1197 36 -49 67 -88 69 -88 2 0 97 189 211 420 113 231 209 420 213 420 4
0 49 -98 100 -218 557 -1300 1023 -1901 1347 -1733 145 74 258 337 304 706 17
130 16 532 0 660 -77 603 -279 823 -525 572 -33 -34 -85 -100 -115 -145 -29
-45 -57 -82 -62 -82 -5 0 -23 13 -42 29 -38 34 -79 112 -103 198 -19 69 -14
66 -146 79 -45 4 -68 3 -68 -4 0 -22 74 -219 107 -286 72 -144 180 -260 314
-335 31 -17 60 -31 66 -31 6 0 21 44 33 97 43 188 97 307 146 319 80 20 147
-158 195 -516 20 -144 17 -551 -4 -673 -63 -364 -205 -441 -417 -227 -224 226
-512 766 -856 1609 -57 139 -104 257 -104 262 0 16 128 188 210 284 171 199
397 384 623 509 43 24 65 42 60 49 -4 7 -45 66 -91 132 -220 313 -349 464
-442 518 -73 42 -146 55 -342 63 l-183 6 -68 -146 c-164 -354 -217 -549 -217
-807 0 -166 18 -274 72 -436 l40 -122 -102 -163 c-57 -90 -105 -165 -107 -168
-10 -11 -75 79 -117 160 -195 376 -162 940 84 1445 130 268 298 469 513 614
119 80 319 151 429 151 44 0 50 -4 135 -81 426 -391 901 -576 1243 -484 150
40 301 160 360 286 91 197 83 443 -24 673 -102 222 -291 455 -519 639 l-87 71
79 22 c194 53 385 139 520 235 205 144 413 408 670 849 84 145 78 137 91 124
22 -22 52 -134 100 -371 60 -294 78 -364 90 -342 5 9 23 71 40 138 157 617 70
1238 -254 1822 -239 430 -519 756 -1220 1425 -225 214 -313 314 -342 391 -30
76 -26 247 8 335 49 130 151 270 263 361 64 52 115 83 115 69 0 -4 -31 -49
-69 -99 -68 -89 -101 -142 -101 -161 0 -6 55 15 123 45 67 30 181 75 252 98
352 117 556 95 800 -88 38 -28 162 -142 275 -253 l205 -201 -131 -7 c-148 -7
-218 -24 -282 -68 -41 -28 -142 -151 -142 -173 1 -5 40 -23 88 -39 169 -55
322 -145 414 -244 61 -65 130 -172 181 -280 l40 -86 -39 -31 c-90 -70 -185
-170 -210 -222 -32 -64 -35 -143 -8 -194 42 -82 212 -220 354 -289 l45 -21
150 59 150 59 3 85 3 84 -43 11 c-24 7 -63 25 -88 42 -109 72 -123 178 -52
397 l43 132 42 6 c122 18 240 25 281 17 79 -15 143 -70 195 -169 9 -17 12 -85
11 -232 l-1 -209 53 15 c239 70 384 196 456 398 17 45 47 158 67 252 20 93 42
191 50 217 10 35 11 46 2 40 -7 -4 -84 -59 -172 -123 -88 -64 -166 -120 -174
-124 -11 -7 -12 2 -6 50 8 70 -9 274 -31 382 -66 319 -204 579 -581 1093 -82
112 -175 241 -208 287 -32 45 -61 82 -65 82 -3 0 -14 -24 -22 -52 -9 -29 -47
-151 -84 -271 l-68 -218 -36 103 c-88 248 -229 459 -409 615 -75 64 -310 227
-317 220 -2 -2 3 -73 11 -157 8 -84 13 -155 11 -157 -2 -2 -76 32 -166 76
-368 181 -632 272 -782 270 l-53 0 106 -37 c136 -48 191 -89 304 -226 65 -79
73 -96 38 -78 -11 6 -57 18 -103 28 -271 54 -582 -47 -904 -294 -52 -40 -57
-42 -51 -21 12 40 83 165 200 354 174 279 226 396 241 540 l7 64 66 15 c168
38 574 64 785 51 l118 -7 -74 -72 c-74 -71 -120 -130 -133 -173 -6 -22 -4 -23
63 -23 186 0 473 -47 662 -110 346 -113 634 -309 1089 -739 l131 -123 -31 73
c-17 41 -66 146 -109 234 -325 665 -789 1151 -1475 1544 -49 28 -92 51 -96 51
-4 0 17 -55 46 -122 29 -68 52 -124 50 -126 -1 -1 -58 6 -126 17 -316 51 -667
86 -773 79 -58 -4 -64 -2 -146 45 -260 151 -489 262 -650 315 -78 26 -222 62
-247 62 -4 0 13 -17 38 -37z m3262 -2666 c119 -167 160 -280 160 -437 0 -99
-20 -250 -33 -250 -14 0 -135 160 -173 229 -48 88 -71 192 -63 286 8 88 37
255 45 255 3 0 32 -37 64 -83z m-4493 -3142 c169 -238 271 -376 373 -505 58
-73 58 -74 8 -20 l-50 55 -87 -45 c-223 -115 -522 -341 -765 -577 l-126 -123
-7 52 c-3 29 -6 123 -6 209 0 392 110 709 393 1127 l69 102 17 -22 c10 -13 91
-126 181 -253z m2787 23 c-8 -184 -42 -306 -128 -466 -137 -257 -371 -465
-633 -562 -29 -11 -121 -35 -205 -54 l-152 -33 -152 132 c-165 143 -358 323
-424 396 l-42 45 172 92 c563 299 923 440 1412 553 176 40 159 52 152 -103z
m-1886 -375 c13 -16 12 -17 -3 -4 -17 13 -22 21 -14 21 2 0 10 -8 17 -17z
m-446 -253 c10 -11 16 -20 13 -20 -3 0 -13 9 -23 20 -10 11 -16 20 -13 20 3 0
13 -9 23 -20z m329 -2901 c113 -42 300 -188 267 -208 -101 -63 -344 -324 -511
-550 l-54 -74 -13 30 c-30 74 -46 196 -41 317 5 107 9 132 40 211 18 50 63
136 98 193 l64 102 48 0 c26 0 72 -9 102 -21z"/>
</g>
</svg>
