<?xml version="1.0" standalone="no"?>
<!DOCTYPE svg PUBLIC "-//W3C//DTD SVG 20010904//EN"
 "http://www.w3.org/TR/2001/REC-SVG-20010904/DTD/svg10.dtd">
<svg version="1.0" xmlns="http://www.w3.org/2000/svg"
 width="1280.000000pt" height="637.000000pt" viewBox="0 0 1280.000000 637.000000"
 preserveAspectRatio="xMidYMid meet">
<metadata>
Created by potrace 1.15, written by Peter Selinger 2001-2017
</metadata>
<g transform="translate(0.000000,637.000000) scale(0.100000,-0.100000)"
fill="#10b981" stroke="none">
<path d="M3101 6325 c-179 -41 -311 -108 -430 -220 -272 -255 -360 -746 -214
-1190 70 -214 158 -353 326 -520 220 -218 497 -378 877 -507 147 -49 93 -40
-127 22 -383 109 -709 255 -1018 458 -129 84 -200 137 -470 348 -77 60 -167
127 -200 148 -33 22 -62 40 -63 42 -2 1 8 37 23 80 23 67 26 90 23 169 -3 81
-7 99 -40 166 -24 47 -80 125 -154 213 -217 260 -245 304 -259 398 -4 26 -13
55 -20 64 -11 16 -14 15 -30 -10 -16 -25 -19 -53 -19 -239 -1 -192 1 -219 22
-290 42 -146 130 -293 250 -419 30 -32 50 -58 44 -58 -6 0 -57 11 -114 25
-129 32 -257 41 -373 26 -49 -7 -97 -14 -106 -17 -14 -4 -16 11 -16 118 0 134
-12 183 -60 246 -48 63 -168 96 -195 52 -12 -18 -13 -18 -25 10 -9 22 -19 30
-38 30 -17 0 -29 8 -37 25 -13 29 -43 33 -57 8 -8 -15 -13 -16 -30 -5 -34 20
-41 14 -41 -32 0 -25 -5 -48 -10 -51 -15 -9 -12 -36 6 -50 13 -9 17 -31 18
-99 1 -58 5 -89 14 -95 9 -5 6 -13 -12 -30 -20 -19 -22 -27 -16 -58 14 -62 76
-109 174 -134 l46 -11 -76 -34 c-68 -29 -121 -60 -69 -39 117 45 212 75 243
75 20 0 66 9 102 21 47 15 102 22 200 25 l135 5 -70 -34 c-96 -47 -149 -88
-178 -139 -36 -62 -41 -99 -22 -163 13 -48 19 -55 40 -55 28 0 33 -15 9 -24
-13 -5 -15 -14 -9 -42 5 -27 2 -41 -11 -55 -20 -22 -12 -49 16 -49 16 0 20 -7
20 -30 0 -34 8 -36 51 -15 16 9 34 13 39 10 17 -11 50 6 50 24 0 13 23 30 75
55 41 20 78 44 84 54 8 14 14 15 39 6 26 -10 33 -8 60 17 41 38 56 88 49 163
-8 80 -41 165 -84 216 -20 23 -34 43 -31 45 2 2 44 -5 93 -16 172 -37 322
-125 822 -480 612 -434 732 -495 1178 -605 373 -91 686 -132 1475 -194 1017
-79 1156 -99 1980 -285 631 -143 838 -183 790 -156 -53 31 -974 265 -1298 330
-361 73 -644 111 -1262 171 -463 45 -664 69 -885 106 -723 121 -1188 323
-1511 655 -92 95 -138 163 -200 293 -162 342 -198 716 -94 984 87 225 284 393
545 463 103 28 312 31 422 6 295 -67 543 -257 659 -502 135 -287 87 -573 -135
-809 -57 -59 -72 -79 -44 -58 56 44 139 136 181 201 114 177 133 418 52 631
-110 283 -375 519 -675 600 -104 29 -311 36 -404 15z"/>
<path d="M7410 5173 c-278 -46 -477 -294 -522 -648 -36 -281 96 -584 381 -878
213 -219 395 -349 821 -582 225 -123 450 -253 450 -260 0 -2 -73 32 -162 75
-564 272 -1056 345 -1530 225 -200 -51 -393 -142 -577 -272 -24 -17 -24 -17
-13 4 14 26 17 25 -83 56 -125 39 -218 50 -367 44 -195 -8 -335 -54 -499 -164
-107 -72 -157 -120 -383 -367 -373 -407 -457 -475 -641 -526 -44 -12 -84 -26
-89 -31 -34 -32 244 -55 490 -40 311 19 548 65 702 136 91 43 224 141 348 258
l91 87 -24 -60 c-68 -169 -92 -404 -59 -571 35 -175 112 -314 251 -455 335
-340 802 -441 1251 -272 382 145 603 469 568 837 l-8 86 -7 -135 c-5 -115 -11
-149 -39 -233 -92 -275 -302 -469 -595 -547 -114 -31 -320 -38 -438 -16 -252
48 -489 178 -675 370 -382 395 -343 894 103 1341 203 204 436 333 725 402 145
34 422 43 590 19 496 -72 993 -314 1690 -821 187 -137 386 -289 755 -580 724
-571 1234 -908 1820 -1205 257 -130 756 -342 771 -328 2 2 -50 26 -114 52
-502 208 -1108 561 -1700 989 -197 142 -459 342 -535 409 l-38 33 30 65 c123
265 129 617 13 845 -32 64 -70 120 -272 400 -194 268 -252 354 -307 451 -53
93 -60 117 -78 252 -8 62 -19 120 -24 129 -7 14 -11 13 -24 -8 -20 -31 -61
-173 -87 -301 -56 -280 -71 -589 -36 -747 43 -200 140 -418 269 -609 l77 -113
-78 66 c-614 529 -795 663 -1401 1032 -560 342 -748 474 -930 655 -227 224
-328 425 -338 674 -11 244 59 432 211 571 142 130 341 186 527 149 121 -25
201 -67 284 -151 110 -109 155 -226 155 -396 0 -191 -65 -321 -204 -411 -67
-43 -67 -51 1 -12 219 129 301 451 178 694 -114 224 -421 376 -675 333z"/>
<path d="M285 4870 c-106 -19 -162 -60 -190 -139 -20 -59 -19 -87 5 -104 20
-14 20 -15 -9 -20 -23 -5 -30 -12 -33 -34 -2 -19 -12 -32 -30 -41 -33 -15 -36
-37 -8 -52 19 -10 19 -13 5 -33 -22 -31 -19 -37 19 -37 18 0 46 -7 62 -15 25
-13 30 -13 47 2 15 14 34 17 97 14 43 -1 87 2 99 8 16 9 22 7 35 -10 12 -18
21 -21 51 -16 21 3 48 13 61 21 51 34 104 169 104 266 0 44 -22 156 -33 166
-20 21 -210 36 -282 24z"/>
<path d="M7791 1874 c0 -11 3 -14 6 -6 3 7 2 16 -1 19 -3 4 -6 -2 -5 -13z"/>
</g>
</svg>
