<?xml version="1.0" standalone="no"?>
<!DOCTYPE svg PUBLIC "-//W3C//DTD SVG 20010904//EN"
 "http://www.w3.org/TR/2001/REC-SVG-20010904/DTD/svg10.dtd">
<svg version="1.0" xmlns="http://www.w3.org/2000/svg"
 width="1280.000000pt" height="1280.000000pt" viewBox="0 0 1280.000000 1280.000000"
 preserveAspectRatio="xMidYMid meet">
<metadata>
Created by potrace 1.15, written by Peter Selinger 2001-2017
</metadata>
<g transform="translate(0.000000,1280.000000) scale(0.100000,-0.100000)"
fill="#10b981" stroke="none">
<path d="M5542 12763 c-13 -48 -37 -173 -54 -283 -8 -52 -13 -181 -13 -335 0
-249 12 -379 48 -519 l13 -49 41 104 c78 200 153 435 159 500 8 77 -11 158
-61 268 -47 105 -85 225 -92 294 -7 66 -25 75 -41 20z"/>
<path d="M6012 12341 c-26 -123 -69 -205 -227 -429 -74 -105 -88 -183 -60
-342 18 -101 18 -211 1 -260 -9 -27 -32 -48 -96 -92 -46 -32 -87 -58 -91 -58
-4 0 10 30 32 67 57 98 48 102 -11 5 -61 -98 -68 -105 -245 -236 -190 -141
-403 -326 -594 -514 -668 -663 -1156 -1480 -1421 -2377 -23 -77 -44 -147 -46
-155 -3 -9 -98 79 -275 256 l-270 270 -50 174 c-121 423 -202 607 -315 710
l-39 35 36 -40 c100 -111 160 -244 237 -535 56 -212 64 -250 54 -250 -11 0
-164 185 -249 300 -84 114 -143 205 -208 322 -27 48 -51 86 -53 83 -2 -2 19
-48 48 -102 119 -220 231 -388 400 -598 92 -115 97 -124 119 -210 75 -288 232
-641 401 -903 l47 -73 -13 -87 c-49 -325 -68 -891 -41 -1212 7 -91 13 -166 12
-168 -1 -1 -33 13 -71 32 -91 46 -137 55 -271 56 -227 0 -511 -64 -601 -137
-27 -21 -27 -22 -7 -37 97 -74 267 -96 516 -67 136 16 305 10 394 -14 32 -9
60 -17 61 -18 1 -1 5 -18 9 -38 l7 -36 -84 -5 c-72 -5 -207 -42 -196 -54 2 -2
24 4 48 13 49 17 208 29 226 16 7 -4 15 -33 19 -63 l7 -55 -184 0 c-170 -1
-189 -3 -260 -27 -122 -41 -204 -92 -299 -187 -106 -107 -159 -188 -301 -460
-109 -212 -205 -386 -243 -446 -15 -22 2 -12 65 40 404 331 458 389 672 715
125 191 173 243 272 290 63 29 189 60 249 60 32 0 35 -2 41 -41 6 -36 3 -45
-27 -82 -19 -23 -75 -98 -125 -167 -50 -69 -125 -165 -166 -215 -42 -49 -85
-108 -96 -131 -24 -49 -26 -114 -4 -197 29 -113 45 -221 51 -350 6 -125 6
-127 25 -110 44 39 203 296 272 437 76 156 119 267 141 371 7 33 15 53 18 45
3 -8 24 -78 47 -155 214 -727 577 -1403 1066 -1990 93 -111 348 -390 406 -443
l25 -23 -38 -92 c-21 -51 -75 -164 -119 -252 -44 -88 -84 -180 -90 -205 -13
-59 -12 -136 1 -183 l10 -38 27 53 c29 60 199 235 373 385 l106 91 69 -55
c464 -374 929 -645 1474 -863 80 -31 175 -67 213 -80 37 -12 67 -25 67 -29 0
-9 -114 15 -435 94 -547 133 -725 175 -970 224 -349 71 -610 83 -775 35 -130
-37 -263 -136 -342 -253 -30 -45 -29 -44 43 24 143 136 235 176 426 183 181 7
318 -16 743 -123 140 -35 298 -76 350 -90 831 -223 1289 -312 1900 -372 227
-22 1023 -26 1150 -6 41 7 140 21 220 32 214 29 268 38 446 77 552 118 1125
351 1674 682 146 87 440 281 440 289 0 3 -11 -2 -25 -11 -327 -214 -802 -437
-1215 -571 -371 -119 -719 -191 -1145 -237 -191 -21 -881 -17 -1070 5 -907
107 -1698 394 -2423 879 -193 129 -524 386 -571 442 -11 13 -10 29 5 88 25 96
25 274 0 380 -15 69 -36 112 -36 76 0 -41 -127 -254 -183 -307 l-24 -21 -135
147 c-277 301 -485 577 -680 903 -159 264 -193 339 -279 615 l-80 257 84 161
c309 594 680 1041 1043 1254 122 72 130 79 49 39 -380 -185 -797 -634 -1134
-1223 -37 -65 -72 -117 -76 -116 -5 1 -26 43 -47 95 -21 51 -65 149 -97 218
-70 147 -107 296 -160 635 -48 303 -55 413 -55 815 -1 474 20 693 106 1108 29
141 33 152 53 152 20 0 25 11 50 117 84 358 248 750 416 999 110 163 267 328
434 455 280 213 614 330 904 316 170 -8 287 -46 381 -123 l45 -36 -46 44 c-54
52 -129 89 -235 120 -114 32 -355 31 -499 -1 -314 -72 -602 -235 -872 -494
-46 -44 -83 -75 -83 -70 0 16 181 312 274 449 314 457 701 868 1151 1219 124
98 521 365 540 365 7 0 60 -20 117 -44 242 -103 404 -146 554 -146 64 0 84 3
84 13 0 35 -148 191 -240 254 -51 34 -149 73 -185 73 -53 0 -28 20 103 83
1315 630 2845 693 4217 172 340 -129 692 -305 958 -479 15 -10 27 -16 27 -12
0 9 -326 221 -485 316 -157 94 -506 273 -665 342 -480 208 -940 333 -1455 395
-211 25 -797 25 -1035 0 -621 -67 -1170 -211 -1706 -448 -138 -60 -365 -173
-471 -233 -63 -36 -81 -36 -42 0 32 29 124 172 154 239 85 192 88 463 9 674
-14 36 -28 69 -32 73 -5 5 -13 -19 -20 -51z m3039 -291 c586 -45 1148 -195
1717 -456 165 -76 352 -172 352 -180 0 -2 -26 9 -57 25 -166 83 -453 197 -688
274 -607 197 -1295 290 -1919 258 -823 -42 -1497 -219 -2236 -586 -224 -112
-278 -134 -349 -148 -47 -9 -86 -15 -88 -13 -1 1 64 41 145 88 725 422 1548
675 2392 737 169 12 576 13 731 1z m-3289 -924 c-329 -209 -653 -469 -939
-756 -73 -73 -133 -130 -133 -127 0 35 575 618 710 721 131 100 278 197 320
213 19 6 59 12 89 13 l54 0 -101 -64z m-1446 -1253 c-57 -87 -166 -290 -166
-308 0 -4 -33 -60 -73 -124 -290 -458 -500 -926 -647 -1440 -21 -75 -42 -152
-45 -171 l-8 -35 -27 34 -28 33 28 101 c182 671 499 1317 920 1880 52 69 98
127 102 127 4 0 -21 -44 -56 -97z m-1317 -1783 c122 -129 221 -243 221 -252 0
-10 -8 -55 -19 -100 -10 -46 -24 -111 -31 -146 -7 -35 -16 -59 -21 -55 -46 47
-252 424 -314 573 -35 86 -85 223 -85 235 0 11 -20 32 249 -255z m329 -370
l22 -30 -25 -132 c-14 -73 -29 -151 -33 -172 l-7 -40 -28 37 -27 36 32 165
c18 91 35 166 38 166 3 0 16 -13 28 -30z m-75 -633 c-6 -62 -16 -159 -20 -215
l-8 -104 -27 22 c-24 18 -28 29 -28 69 0 57 28 353 36 387 6 24 7 24 33 -11
l27 -36 -13 -112z m-17 -1217 c18 -41 35 -93 38 -115 l5 -40 -29 35 c-44 52
-57 87 -63 170 -5 59 -4 70 5 50 6 -14 26 -59 44 -100z m23 -195 c20 -10 30
-24 33 -45 5 -35 8 -34 -37 -13 -28 13 -35 22 -35 45 0 32 1 33 39 13z m38
-127 c6 -7 21 -62 33 -123 62 -316 147 -604 276 -932 35 -89 64 -164 64 -166
0 -3 -7 -22 -16 -43 -20 -47 -15 -54 -99 156 -114 284 -200 560 -264 849 -21
97 -42 196 -46 221 -3 25 -9 53 -12 63 -4 17 -3 17 24 3 16 -8 34 -21 40 -28z
m522 -1525 c249 -491 562 -928 940 -1316 141 -144 144 -148 126 -167 -10 -11
-23 -20 -29 -20 -14 0 -226 214 -327 330 -241 276 -454 574 -639 895 -58 100
-220 415 -220 427 0 3 11 3 25 0 18 -3 25 0 25 12 0 9 2 16 5 16 2 0 45 -80
94 -177z m1706 -1978 c609 -432 1295 -735 2020 -890 1062 -227 2184 -132 3179
270 100 40 225 93 279 119 53 25 97 43 97 41 0 -3 -72 -41 -160 -85 -744 -373
-1470 -550 -2243 -550 -1256 1 -2473 431 -3462 1223 -55 44 -102 82 -104 83
-2 2 9 14 25 27 l28 24 105 -85 c58 -47 165 -126 236 -177z"/>
<path d="M4816 11958 c16 -56 79 -178 128 -252 70 -104 164 -201 298 -304 98
-76 147 -125 176 -177 10 -18 11 -16 12 15 0 65 -37 216 -72 291 -44 94 -115
187 -190 250 -73 61 -125 91 -229 134 -45 19 -89 41 -99 50 -24 21 -32 19 -24
-7z"/>
<path d="M1992 10677 c-19 -45 -42 -192 -42 -266 0 -89 24 -229 55 -326 57
-176 193 -415 326 -572 53 -63 72 -75 48 -31 -14 26 -18 149 -8 298 11 158
-10 208 -149 364 -106 118 -152 217 -191 412 -11 55 -21 110 -24 124 l-3 25
-12 -28z"/>
<path d="M7240 10543 c-64 -46 -192 -99 -440 -183 -424 -142 -550 -209 -726
-384 -129 -129 -175 -207 -182 -307 -7 -89 4 -103 32 -43 97 207 348 381 714
493 225 69 309 110 436 211 69 54 168 165 195 218 14 27 14 27 -29 -5z"/>
<path d="M2728 10108 c-5 -82 -19 -113 -108 -248 -96 -148 -129 -231 -130
-332 0 -49 14 -72 24 -40 4 10 57 68 119 128 150 146 162 169 162 329 0 109
-2 125 -27 178 -15 31 -29 57 -31 57 -2 0 -7 -33 -9 -72z"/>
<path d="M1225 9978 c173 -32 218 -51 465 -196 80 -47 181 -102 225 -123 87
-41 202 -82 216 -77 12 4 -62 120 -119 186 -65 78 -170 147 -266 178 -90 28
-258 44 -456 42 -102 0 -109 -1 -65 -10z"/>
<path d="M6795 9623 c-151 -44 -255 -56 -420 -47 -197 10 -304 11 -336 2 -25
-7 -79 -54 -79 -68 0 -4 17 1 37 11 21 10 51 19 68 19 18 0 108 -25 200 -56
162 -54 173 -56 251 -52 71 4 94 10 159 42 70 35 219 157 205 168 -3 2 -41 -6
-85 -19z"/>
<path d="M1685 9479 c-102 -14 -192 -49 -418 -161 -213 -105 -313 -164 -351
-207 -23 -25 -16 -27 25 -5 79 40 219 62 539 84 232 16 335 46 428 125 23 20
42 35 42 32 0 -2 -20 -39 -45 -82 -62 -110 -99 -218 -135 -402 -18 -87 -51
-219 -75 -293 -41 -126 -85 -289 -100 -370 -4 -24 12 0 55 80 65 122 176 292
259 400 125 161 165 323 126 508 -28 136 -48 193 -63 187 -10 -3 -12 0 -8 10
3 8 8 21 12 29 6 16 -70 51 -131 61 -77 12 -100 12 -160 4z"/>
<path d="M5550 9468 c-286 -17 -335 -32 -431 -127 -49 -50 -184 -245 -318
-461 -66 -104 -137 -240 -111 -210 12 14 42 49 67 78 80 94 211 180 383 253
131 55 223 132 356 299 88 111 127 144 196 165 49 15 51 15 -142 3z"/>
<path d="M5796 9351 c-52 -74 -163 -156 -486 -356 -261 -161 -351 -263 -405
-460 -18 -67 -31 -273 -21 -330 l7 -36 38 58 c88 137 241 271 402 354 115 59
132 76 242 250 41 65 98 146 126 180 93 115 150 265 132 351 l-6 31 -29 -42z"/>
<path d="M5983 9358 c-14 -26 -18 -56 -18 -138 0 -95 3 -112 31 -176 96 -221
327 -436 617 -575 60 -28 110 -49 113 -46 3 2 -27 23 -66 46 -106 63 -222 155
-285 224 -79 87 -127 192 -158 344 -30 146 -75 240 -148 308 -26 25 -53 45
-58 45 -6 0 -18 -15 -28 -32z"/>
<path d="M5204 7239 c-102 -85 -187 -208 -220 -321 -19 -62 -21 -214 -4 -278
6 -25 27 -93 46 -152 35 -112 44 -208 25 -275 -12 -40 7 -36 42 10 79 104 97
190 107 527 8 256 25 419 50 494 6 16 9 31 7 32 -2 2 -25 -15 -53 -37z"/>
<path d="M5944 6932 c-83 -75 -281 -176 -459 -234 -96 -31 -182 -91 -220 -152
-25 -42 -30 -60 -30 -115 0 -41 7 -84 19 -113 19 -50 36 -62 36 -28 0 38 67
94 201 170 115 64 147 88 229 170 82 83 197 223 255 313 23 35 18 34 -31 -11z"/>
<path d="M6395 6564 c-114 -64 -284 -117 -504 -154 -165 -29 -362 -108 -471
-190 -30 -22 -56 -44 -58 -49 -1 -4 25 -4 59 0 34 4 117 3 183 -2 272 -19 408
-8 507 42 70 35 194 150 254 234 42 60 100 156 93 154 -1 0 -30 -16 -63 -35z"/>
<path d="M5123 6020 c-56 -12 -124 -42 -143 -65 -16 -19 -25 -10 120 -128 236
-191 523 -329 774 -372 173 -29 395 -16 558 35 73 22 223 88 216 95 -2 2 -32
-5 -66 -15 -214 -67 -440 -38 -669 86 -44 24 -164 99 -265 165 -100 67 -208
133 -238 147 -109 49 -211 67 -287 52z"/>
<path d="M3525 2490 c11 -5 63 -27 116 -50 272 -116 405 -249 485 -482 28 -84
63 -145 113 -201 37 -41 116 -97 137 -97 18 0 34 56 34 117 0 264 -338 567
-773 693 -100 29 -155 39 -112 20z"/>
<path d="M3870 1534 c-101 -27 -191 -95 -265 -199 -25 -34 -45 -65 -45 -69 0
-3 32 10 72 30 89 45 256 100 345 114 38 6 127 15 198 20 72 5 146 14 165 21
47 16 96 53 103 79 7 25 6 25 -39 -5 -47 -32 -90 -32 -270 0 -159 28 -188 29
-264 9z"/>
<path d="M4482 1163 c-315 -315 -506 -582 -556 -779 -27 -106 -20 -115 24 -31
98 193 206 313 355 397 117 65 185 124 213 182 11 24 34 97 51 163 17 66 44
146 59 178 16 31 27 57 25 57 -2 0 -79 -75 -171 -167z"/>
<path d="M4752 1252 c-35 -80 -30 -191 14 -366 39 -156 43 -207 20 -281 -8
-27 -14 -50 -13 -52 9 -8 53 36 82 81 47 74 76 168 77 251 1 79 -10 111 -79
228 -25 43 -53 103 -63 133 l-17 56 -21 -50z"/>
</g>
</svg>
