<?xml version="1.0" standalone="no"?>
<!DOCTYPE svg PUBLIC "-//W3C//DTD SVG 20010904//EN"
 "http://www.w3.org/TR/2001/REC-SVG-20010904/DTD/svg10.dtd">
<svg version="1.0" xmlns="http://www.w3.org/2000/svg"
 width="1280.000000pt" height="1280.000000pt" viewBox="0 0 1280.000000 1280.000000"
 preserveAspectRatio="xMidYMid meet">
<metadata>
Created by potrace 1.15, written by Peter Selinger 2001-2017
</metadata>
<g transform="translate(0.000000,1280.000000) scale(0.100000,-0.100000)"
fill="#000000" stroke="none">
<path d="M5533 11934 c-475 -475 -863 -866 -863 -869 0 -3 228 -5 507 -5 l508
0 357 357 358 358 1830 -1830 1830 -1830 0 516 0 515 -1829 1827 c-1005 1005
-1830 1827 -1832 1826 -2 0 -392 -390 -866 -865z"/>
<path d="M1877 10923 c-10 -9 -9 -2443 0 -2443 5 0 169 161 365 357 l358 358
0 502 0 503 2585 0 c1422 0 2585 2 2585 5 0 3 -162 167 -360 365 l-360 360
-2583 0 c-1421 0 -2587 -3 -2590 -7z"/>
<path d="M8480 10922 c0 -4 161 -168 358 -365 l357 -357 503 0 502 0 0 -2585
c0 -1422 3 -2585 8 -2585 4 0 168 161 365 358 l357 357 -2 2590 -3 2590 -1222
3 c-673 1 -1223 -1 -1223 -6z"/>
<path d="M1833 8229 l-1832 -1830 865 -865 c475 -475 866 -864 869 -864 3 0 5
228 5 507 l0 508 -357 357 -358 358 1830 1830 1830 1830 -510 0 -510 0 -1832
-1831z"/>
<path d="M11060 7623 l0 -508 357 -357 358 -358 -1830 -1830 -1830 -1830 513
0 512 0 1830 1830 1830 1830 -865 865 c-476 476 -867 865 -870 865 -3 0 -5
-228 -5 -507z"/>
<path d="M2227 7409 l-357 -359 2 -2588 3 -2587 1223 -3 c672 -1 1222 1 1222
5 0 5 -161 169 -357 365 l-358 358 -502 0 -503 0 0 2585 c0 1422 -3 2585 -7
2584 -5 0 -169 -162 -366 -360z"/>
<path d="M2740 4173 l0 -513 1830 -1830 1830 -1830 865 865 c476 476 865 867
865 870 0 3 -228 5 -507 5 l-508 0 -357 -357 -358 -358 -1830 1830 -1830 1830
0 -512z"/>
<path d="M10557 3962 l-357 -357 0 -503 0 -502 -2585 0 c-1422 0 -2585 -1
-2585 -3 0 -1 163 -166 363 -365 l362 -362 2585 3 2585 2 3 1223 c1 672 -1
1222 -6 1222 -4 0 -168 -161 -365 -358z"/>
</g>
</svg>
